<svg width="16" height="36" viewBox="0 0 16 36" fill="none" xmlns="http://www.w3.org/2000/svg">
<path d="M8.51016 35.7621L15.747 27.5804C16.0506 27.2865 16.086 26.77 15.8259 26.4268C15.566 26.0836 15.1091 26.0436 14.8056 26.3376C14.7773 26.365 14.7508 26.3948 14.7266 26.4268L8.72005 33.2094L8.72006 0.818141C8.72006 0.366321 8.39604 -4.43394e-07 7.99633 -4.66701e-07C7.59663 -4.90009e-07 7.27267 0.366321 7.27267 0.818141L7.27267 33.2094L1.27335 26.4268C1.01339 26.0836 0.55653 26.0436 0.252973 26.3376C-0.0505838 26.6316 -0.0859708 27.148 0.174052 27.4912C0.198307 27.5232 0.224675 27.5531 0.252973 27.5804L7.48984 35.7621C7.772 36.0793 8.22787 36.0793 8.51016 35.7621Z" fill="white"/>
</svg>
