<svg width="36" height="16" viewBox="0 0 36 16" fill="none" xmlns="http://www.w3.org/2000/svg">
<path d="M35.7621 7.48984L27.5804 0.252973C27.2865 -0.0505841 26.77 -0.085971 26.4268 0.174052C26.0836 0.434013 26.0436 0.890873 26.3376 1.19443C26.365 1.22273 26.3948 1.24916 26.4268 1.27335L33.2094 7.27994L0.818141 7.27994C0.366321 7.27994 -1.94234e-07 7.60396 -2.04444e-07 8.00367C-2.14654e-07 8.40337 0.366321 8.72733 0.818141 8.72733L33.2094 8.72733L26.4268 14.7266C26.0836 14.9866 26.0436 15.4435 26.3376 15.747C26.6316 16.0506 27.148 16.086 27.4912 15.8259C27.5232 15.8017 27.5531 15.7753 27.5804 15.747L35.7621 8.51016C36.0793 8.22799 36.0793 7.77213 35.7621 7.48984Z" fill="#17457C"/>
</svg>
