<svg width="1229" height="674" viewBox="0 0 1229 674" fill="none" xmlns="http://www.w3.org/2000/svg">
<path d="M1032.85 201.344C989.324 192.804 944.556 192.804 901.032 201.344L895.921 202.308L868.632 106.074C865.74 95.3703 837.679 2.12525 758.609 0.0038517C724.295 -0.226174 690.703 9.85159 662.182 28.932C650.396 37.166 637.087 42.9682 623.032 45.9996C614.93 46.7361 606.782 45.2001 599.504 41.564C568.706 28.0615 534.483 24.4236 501.534 31.1498C461.71 39.7318 415.907 69.1421 358.34 266.432L356.701 271.736L351.686 270C316.483 260.786 280.269 255.992 243.881 255.729C188.645 254.325 134.27 269.616 87.8617 299.603C61.973 316.691 40.5162 339.688 25.2598 366.697C10.0035 393.705 1.38435 423.953 0.112975 454.947C-0.792743 481.856 3.75495 508.671 13.4824 533.776C23.2098 558.882 37.9159 581.76 56.7157 601.034C101.554 647.994 166.064 673.837 238.481 673.837C346.769 673.837 455.731 585.799 571.058 492.94C714.928 377.227 863.618 257.561 1015.49 287.935C1081.45 301.146 1148.27 354.084 1138.92 439.037C1134.29 481.175 1093.31 519.553 1036.9 534.403C1004.88 542.792 893.993 561.114 808.558 442.605L781.752 405.48C759.188 419.655 735.274 436.144 709.045 455.622L736.913 494.193C831.026 624.659 965.156 644.523 1059.37 619.548C1153.57 594.574 1217.99 527.846 1226.76 448.39C1241.42 314.742 1140.36 222.847 1032.85 201.344ZM806.726 229.79C702.681 273.664 607.604 350.131 515.709 424.283C412.725 507.018 315.43 585.22 239.349 585.51C191.135 585.51 148.997 569.406 121.033 539.996C110.522 529.418 102.26 516.823 96.7418 502.97C91.2237 489.117 88.5639 474.29 88.9224 459.383C89.5309 442.061 94.2888 425.137 102.796 410.036C111.303 394.934 123.311 382.095 137.811 372.598C183.132 341.935 251.016 335.86 329.026 355.531L334.522 356.977L333.172 362.474C324.301 398.055 315.333 436.626 306.366 477.318L298.459 511.068C335.746 490.579 371.23 466.966 404.528 440.483C406.65 431.419 418.414 385.327 420.632 376.841C475.692 165.376 502.016 126.131 520.434 117.934C538.852 109.738 559.969 119.766 571.058 124.009C590.63 133.047 612.352 136.389 633.736 133.652C659.751 129.749 684.635 120.348 706.731 106.074L714.253 101.542C730.645 91.8989 743.181 84.1848 757.548 88.9097C769.795 93.0561 779.63 116.584 783.487 129.795L811.355 228.151L806.726 229.79Z" fill="#B9571A"/>
<path d="M1032.85 201.344C989.324 192.804 944.556 192.804 901.032 201.344L895.921 202.308L868.632 106.074C865.74 95.3703 837.679 2.12525 758.609 0.0038517C724.295 -0.226174 690.703 9.85159 662.182 28.932C650.396 37.166 637.087 42.9682 623.032 45.9996C614.93 46.7361 606.782 45.2001 599.504 41.564C568.706 28.0615 534.483 24.4236 501.534 31.1498C461.71 39.7318 415.907 69.1421 358.34 266.432L356.701 271.736L351.686 270C316.483 260.786 280.269 255.992 243.881 255.729C188.645 254.325 134.27 269.616 87.8617 299.603C61.973 316.691 40.5162 339.688 25.2598 366.697C10.0035 393.705 1.38435 423.953 0.112975 454.947C-0.792743 481.856 3.75495 508.671 13.4824 533.776C23.2098 558.882 37.9159 581.76 56.7157 601.034C101.554 647.994 166.064 673.837 238.481 673.837C346.769 673.837 455.731 585.799 571.058 492.94C714.928 377.227 863.618 257.561 1015.49 287.935C1081.45 301.146 1148.27 354.084 1138.92 439.037C1134.29 481.175 1093.31 519.553 1036.9 534.403C1004.88 542.792 893.993 561.114 808.558 442.605L781.752 405.48C759.188 419.655 735.274 436.144 709.045 455.622L736.913 494.193C831.026 624.659 965.156 644.523 1059.37 619.548C1153.57 594.574 1217.99 527.846 1226.76 448.39C1241.42 314.742 1140.36 222.847 1032.85 201.344ZM806.726 229.79C702.681 273.664 607.604 350.131 515.709 424.283C412.725 507.018 315.43 585.22 239.349 585.51C191.135 585.51 148.997 569.406 121.033 539.996C110.522 529.418 102.26 516.823 96.7418 502.97C91.2237 489.117 88.5639 474.29 88.9224 459.383C89.5309 442.061 94.2888 425.137 102.796 410.036C111.303 394.934 123.311 382.095 137.811 372.598C183.132 341.935 251.016 335.86 329.026 355.531L334.522 356.977L333.172 362.474C324.301 398.055 315.333 436.626 306.366 477.318L298.459 511.068C335.746 490.579 371.23 466.966 404.528 440.483C406.65 431.419 418.414 385.327 420.632 376.841C475.692 165.376 502.016 126.131 520.434 117.934C538.852 109.738 559.969 119.766 571.058 124.009C590.63 133.047 612.352 136.389 633.736 133.652C659.751 129.749 684.635 120.348 706.731 106.074L714.253 101.542C730.645 91.8989 743.181 84.1848 757.548 88.9097C769.795 93.0561 779.63 116.584 783.487 129.795L811.355 228.151L806.726 229.79Z" fill="#B9571A"/>
</svg>
