<svg width="107" height="107" viewBox="0 0 107 107" fill="none" xmlns="http://www.w3.org/2000/svg">
<rect width="107" height="107" rx="8" fill="url(#paint0_linear)"/>
<path d="M33.3658 50.9238C33.3658 49.6231 33.5659 49.423 33.9661 49.423C34.3664 49.423 34.5665 49.6231 34.5665 50.9238V67.4331H48.4243V50.9238C48.4243 49.6231 48.6244 49.423 49.0246 49.423C49.4249 49.423 49.625 49.6231 49.625 50.9238V67.4331H63.883V47.772C63.883 41.0182 61.1315 37.7664 55.7284 37.7664C51.3259 37.7664 48.9746 40.3178 48.1742 44.27C47.5238 39.8675 45.3226 37.7664 40.82 37.7664C36.2674 37.7664 33.816 40.3178 33.0156 44.3701L31.5648 38.1666H18.9576V67.4331H33.3658V50.9238Z" fill="white"/>
<path d="M74.5919 68.2336C84.7476 68.2336 89 64.0312 89 57.6776C89 51.224 85.348 49.2228 77.7937 48.5224C73.2411 48.0722 72.8909 47.8721 72.8909 47.4218C72.8909 46.9716 73.2411 46.7214 73.9415 46.7214C75.0922 46.7214 75.6425 47.1717 75.8426 48.1222H88.8499C87.9494 41.5685 83.3969 37.7664 73.9916 37.7664C64.6863 37.7664 59.7835 41.7686 59.7835 48.0222C59.7835 54.1256 62.8352 56.527 71.0399 57.1273C75.1922 57.4275 75.9927 57.6276 75.9927 58.2279C75.9927 58.5781 75.6425 58.9283 74.9921 58.9283C73.7914 58.9283 73.041 58.5281 72.6908 57.4775H59.2832C60.1837 64.8817 64.7363 68.2336 74.5919 68.2336Z" fill="white"/>
<defs>
<linearGradient id="paint0_linear" x1="97.1716" y1="25.1764" x2="20.8202" y2="25.8773" gradientUnits="userSpaceOnUse">
<stop stop-color="#FD7725"/>
<stop offset="1" stop-color="#FB1677"/>
</linearGradient>
</defs>
</svg>
