<svg width="261" height="210" viewBox="0 0 261 210" fill="none" xmlns="http://www.w3.org/2000/svg">
<path d="M0 4C0 1.79086 1.79086 0 4 0H256.812C259.021 0 260.812 1.79086 260.812 4V206C260.812 208.209 259.021 210 256.812 210H4C1.79086 210 0 208.209 0 206V4Z" fill="#3E1761"/>
<g clip-path="url(#clip0)">
<path d="M54 89.3388C57.8689 89.3388 61.7399 89.3388 65.6087 89.3083C66.2477 89.3083 66.5716 89.5695 66.9128 90.0483C70.7889 95.5371 74.6766 101.025 78.5759 106.513C78.7932 106.822 79.028 107.124 79.4127 107.642C79.441 107.046 79.4714 106.706 79.4714 106.367C79.4714 101.877 79.4388 97.387 79.4975 92.8972C79.5127 91.772 79.0628 91.2257 78.0499 90.9798C77.2785 90.784 76.4819 90.7063 75.6873 90.7491C75.107 90.7861 75.07 90.4771 75.0613 90.0178C75.0526 89.5586 75.1613 89.3105 75.7134 89.3149C78.6114 89.3381 81.5043 89.3381 84.3922 89.3149C84.9682 89.3149 85.0225 89.5652 85.0247 90.0309C85.0269 90.4966 84.9508 90.7839 84.3857 90.7491C83.8065 90.7112 83.2252 90.717 82.6469 90.7665C81.2602 90.8884 80.9081 91.2932 80.9081 92.697C80.9081 101.822 80.9023 110.947 80.8907 120.071C80.8907 120.47 81.258 121.066 80.6016 121.279C79.9452 121.493 79.5735 121.012 79.2214 120.52C73.0443 111.91 66.8614 103.305 60.6727 94.7036C60.4684 94.4206 60.251 94.1508 60.0206 93.8613C59.6968 94.129 59.8359 94.4381 59.8359 94.6992C59.8272 102.124 59.8272 109.546 59.8359 116.968C59.8359 118.683 60.2836 119.122 62.0333 119.144C62.5028 119.144 62.9723 119.162 63.4417 119.144C63.9112 119.127 64.3329 119.101 64.3416 119.839C64.3503 120.576 64.046 120.644 63.4374 120.637C60.3032 120.611 57.1472 120.624 54 120.624V119.101C54.7933 119.101 55.5845 119.142 56.3778 119.122C57.2777 119.101 57.7645 118.583 57.8623 117.712C57.9055 117.244 57.9236 116.774 57.9167 116.304C57.9167 108.896 57.9167 101.487 57.9167 94.079C57.9123 90.6642 57.7428 90.5097 54.2999 90.7535C54.1959 90.7752 54.0951 90.8103 54 90.8579V89.3388Z" fill="white"/>
<path d="M151.425 90.6489C151.219 89.5608 151.643 89.2822 152.74 89.2952C158.161 89.3605 163.582 89.3235 169.003 89.3257C171.383 89.3257 173.691 89.6935 175.795 90.8709C178.331 92.2921 179.89 94.3531 179.914 97.4C179.938 100.447 178.475 102.639 175.856 104.06C172.85 105.69 169.553 106.062 166.205 106.125C165.301 106.143 164.397 106.145 163.495 106.125C162.976 106.112 162.708 106.223 162.71 106.837C162.734 110.709 162.734 114.581 162.71 118.452C162.71 119.048 162.928 119.192 163.475 119.175C164.414 119.144 165.356 119.19 166.301 119.157C166.853 119.138 166.979 119.401 166.964 119.88C166.953 120.315 166.938 120.639 166.34 120.637C161.534 120.62 156.727 120.637 151.921 120.613C150.923 120.613 151.552 119.743 151.345 119.307C152.23 119.105 153.13 119.203 154.021 119.22C154.684 119.236 154.89 119.014 154.87 118.35C154.831 116.48 154.884 114.609 154.842 112.739C154.825 111.895 155.06 111.026 154.694 110.199C154.694 109.786 154.694 109.374 154.694 108.961C155.064 107.964 154.736 106.928 154.87 105.914C155.023 105.294 154.592 104.734 154.69 104.123C154.943 103.088 154.95 102.008 154.712 100.969C154.712 100.525 154.707 100.081 154.697 99.6374C154.734 99.5764 154.803 99.5155 154.805 99.4545C154.825 96.7188 154.834 93.9831 154.855 91.2496C154.855 90.6946 154.488 90.7338 154.121 90.7273C153.219 90.699 152.323 90.6642 151.425 90.6489ZM162.728 97.6612C162.728 99.7614 162.741 101.862 162.717 103.962C162.717 104.499 162.841 104.754 163.436 104.73C164.916 104.667 166.401 104.808 167.875 104.556C169.918 104.206 171.072 103.065 171.154 100.991C171.246 98.6798 171.246 96.3576 171.154 94.0441C171.072 92.0201 170.046 91.0842 168.012 90.8513C166.534 90.6816 165.051 90.7752 163.571 90.7208C162.908 90.6946 162.702 90.9079 162.717 91.5782C162.749 93.6045 162.721 95.6328 162.723 97.6612H162.728Z" fill="white"/>
<path d="M199.469 120.62C197.265 120.62 195.061 120.62 192.857 120.62C192.346 120.62 192.057 120.555 192.055 119.932C192.053 119.31 192.257 119.062 192.868 119.149C192.904 119.154 192.94 119.154 192.976 119.149C193.815 119.055 194.974 119.553 195.411 118.911C195.78 118.363 195.035 117.388 194.787 116.602C194.37 115.296 193.878 114.01 193.468 112.702C193.279 112.101 193.009 111.832 192.327 111.851C189.69 111.895 187.051 111.871 184.413 111.866C183.978 111.866 183.57 111.834 183.385 112.397C182.807 114.139 182.196 115.88 181.592 117.621C181.272 118.541 181.648 119.022 182.559 119.096C183.35 119.17 184.145 119.188 184.939 119.151C185.539 119.116 185.676 119.336 185.687 119.884C185.687 120.467 185.484 120.622 184.928 120.618C182.175 120.594 179.428 120.594 176.688 120.618C176.132 120.618 175.93 120.467 175.93 119.889C175.93 119.31 176.106 119.099 176.671 119.129C178.514 119.225 179.481 118.359 180.135 116.58C183.435 107.592 186.873 98.6559 190.249 89.6957C190.503 89.021 190.683 88.5183 191.629 88.5335C192.511 88.5466 192.69 88.9949 192.933 89.6391C196.476 98.9975 200.06 108.356 203.557 117.725C203.992 118.892 204.537 119.325 205.731 119.173C206.115 119.122 206.77 118.829 206.93 119.488C207.074 120.084 207.091 120.668 206.083 120.631C203.881 120.565 201.675 120.62 199.469 120.62ZM188.447 99.0454C187.058 102.774 185.75 106.284 184.439 109.797C184.202 110.432 184.604 110.421 185.041 110.419C186.562 110.419 188.084 110.419 189.59 110.419C190.527 110.419 191.462 110.373 192.396 110.347C192.359 109.353 191.866 108.493 191.544 107.588C190.562 104.798 189.534 102.027 188.447 99.0454Z" fill="white"/>
<path d="M112.835 118.685C112.835 118.938 112.818 119.19 112.785 119.44C112.709 119.832 113.052 120.45 112.528 120.57C112.005 120.689 111.209 120.914 110.8 120.333C109.751 118.842 108.74 119.205 107.323 119.921C101.296 122.957 93.8992 120.861 89.7586 114.905C84.7378 107.679 85.4681 99.8333 92.0582 92.9712C95.8227 89.0537 100.335 87.5759 105.662 89.3105C106.6 89.5882 107.478 90.04 108.249 90.6424C108.831 91.1191 109.118 90.9341 109.533 90.4487C109.948 89.9634 110.224 89.304 111.103 89.2953C111.946 89.2953 112.289 89.5129 112.152 90.366C112.136 90.6181 112.145 90.8712 112.181 91.1212C112.181 92.9175 112.181 94.713 112.181 96.5078C111.872 96.9996 112.698 97.9681 111.529 98.0943C110.905 98.1444 110.596 97.8267 110.377 97.2564C110.096 96.5361 109.818 95.8004 109.318 95.1845C108.12 92.7709 106.382 91.0015 103.702 90.3095C99.2829 89.1669 97.0877 90.5445 96.2118 94.9843C96.1553 95.2694 96.1227 95.5567 96.0857 95.8549C95.4858 100.612 95.651 105.394 95.6945 110.169C95.714 112.267 95.7966 114.369 96.3465 116.415C96.8377 118.267 97.9745 119.438 99.9133 119.747C104.184 120.43 107.59 118.729 109.646 114.881C110.407 113.769 110.62 112.4 111.316 111.255C112.804 111.344 112.8 111.344 112.807 112.839C112.807 113.481 112.835 114.123 112.848 114.765C112.841 116.068 112.836 117.375 112.835 118.685Z" fill="white"/>
<path d="M154.692 99.6309C154.692 100.075 154.697 100.519 154.707 100.963L152.417 102.852L154.686 104.121C154.588 104.732 155.018 105.292 154.866 105.912C153.962 106.042 153.284 106.6 152.458 107.098L154.69 108.946C154.69 109.359 154.69 109.771 154.69 110.184L151.606 111.179L154.334 114.556C153.03 114.702 151.901 114.852 150.769 114.942C150.171 114.99 149.98 115.133 150.319 115.716C150.791 116.528 151.176 117.39 151.656 118.195C152.017 118.805 151.78 118.931 151.221 118.905C150.087 118.739 148.954 118.589 147.726 118.705C148.1 120.01 148.461 121.257 148.863 122.646C147.808 122.45 146.775 122.15 145.779 121.752C146.17 120.964 146.92 120.228 146.109 119.273C146.083 119.24 146.176 119.072 146.244 118.996C147.037 118.11 147.32 116.918 148.072 115.988C148.624 115.305 148.506 114.639 147.552 114.324C147.617 113.738 148.215 113.396 148.246 112.8L148.402 112.617C148.619 112.358 148.65 112.03 148.696 111.712L148.843 111.533C149.852 109.048 150.147 106.463 150.013 103.796C149.85 100.625 148.837 97.7309 147.318 94.9843C147.826 94.3662 148.187 93.722 147.474 92.8079C148.374 93.0843 148.38 93.9331 148.956 94.2052C149.732 93.1866 148.924 92.2747 148.839 91.328L151.434 91.0233C151.958 91.0473 151.899 91.2888 151.697 91.6458C151.308 92.3357 150.947 93.043 150.578 93.746C149.967 94.9103 149.969 94.8994 151.23 95.0148C152.219 95.1062 153.206 95.2324 154.355 95.3521C153.497 96.412 152.764 97.3391 152.001 98.2445C151.675 98.6319 151.669 98.8234 152.219 98.954C153.034 99.1521 153.862 99.4002 154.692 99.6309ZM149.113 95.1628C152.095 101.747 152.06 108.318 149.009 114.874C152.634 109.875 152.532 100.064 149.113 95.1628ZM148.774 115.403L148.724 115.336L148.663 115.392L148.746 115.477L148.774 115.403Z" fill="#D4A23A"/>
<path d="M112.185 96.5078C112.185 94.713 112.185 92.9175 112.185 91.1213C114.543 91.4303 114.517 91.4368 113.924 89.1451C113.769 88.5423 113.146 87.8067 113.622 87.3561C113.95 87.0449 114.739 87.5912 115.319 87.7588C117.586 88.4117 117.58 88.4117 117.347 86.0917C117.286 85.4714 116.851 84.6335 117.347 84.2875C117.738 84.0198 118.414 84.6988 118.953 84.973C121.127 86.0808 121.127 86.0895 121.275 83.6345C121.311 83.0709 121.183 82.2743 121.648 82.0567C122.083 81.8564 122.518 82.5616 122.933 82.8793C123.561 83.3538 124.172 83.8478 124.811 84.3484C125.259 83.6955 125.317 82.9882 125.541 82.3505C125.765 81.7128 125.937 81.123 126.167 80.407C126.997 81.012 127.471 81.8129 128.01 82.5442C127.482 84.035 127.684 84.3353 129.217 84.3397C129.751 84.3397 130.286 84.3397 130.821 84.3527C130.821 84.4267 130.821 84.5029 130.821 84.5704C130.821 86.0677 130.821 86.0699 132.342 86.0677C133.307 86.0677 134.259 86.1308 135.168 86.503V87.1559C134.103 87.0123 133.042 86.8099 131.973 86.7381C129.682 86.5814 127.454 86.9862 125.28 87.6761C125.081 87.757 124.865 87.788 124.651 87.7664C124.437 87.7448 124.231 87.6712 124.052 87.552C124.967 86.8817 126.03 86.6445 127.123 86.4921C127.513 86.207 128.193 86.466 128.388 85.8501C128.484 85.5519 128.569 85.1036 128.302 84.9425C128.061 84.7905 127.781 84.7121 127.496 84.7171C127.212 84.7222 126.935 84.8103 126.7 84.9708C124.499 85.1856 122.406 86.0286 120.67 87.3997C118.464 89.069 116.323 90.8188 114.439 92.8406C113.446 93.8918 112.937 95.2825 112.185 96.5078Z" fill="#E5C17B"/>
<path d="M148.828 91.3171C148.913 92.2639 149.721 93.1758 148.946 94.1943C148.37 93.9222 148.363 93.0735 147.463 92.7971C148.176 93.7177 147.815 94.3619 147.307 94.9734C145.87 92.9635 144.179 91.1492 142.275 89.576C143.186 88.8535 143.192 88.6467 142.275 88.0265C141.775 87.6848 141.29 87.2713 140.734 87.071C139.43 86.6053 138.458 85.5258 137.087 85.2255L136.848 85.047L137.167 84.2069C137.985 84.3462 138.274 83.5671 138.826 83.2471C139.478 82.875 140.017 81.8281 140.604 82.0654C141.106 82.2678 140.936 83.4169 140.999 84.1569C141.164 86.0938 141.16 86.0938 142.862 85.1972L145.101 84.0263C144.983 85.2886 144.918 86.3594 144.772 87.4214C144.672 88.1462 144.772 88.44 145.585 88.1505C146.6 87.7914 147.65 87.5281 148.893 87.1603L147.746 91.1778C148.113 91.4434 148.489 91.217 148.828 91.3171ZM147.089 92.1507L146.989 92.1072L147.078 92.1637C147.111 92.3183 147.109 92.5054 147.346 92.488C147.362 92.4837 147.377 92.4751 147.388 92.4633C147.4 92.4514 147.409 92.4367 147.413 92.4205C147.435 92.1877 147.244 92.1877 147.094 92.155L147.089 92.1507Z" fill="#D8A94B"/>
<path d="M112.835 118.685C112.835 117.379 112.835 116.069 112.835 114.755C113.691 115.952 114.356 117.297 115.536 118.237C117.275 119.638 118.836 121.234 120.655 122.548C122.546 123.917 124.587 124.764 126.904 124.968L127.556 125.386C127.582 126.091 127.454 126.814 127.802 127.48C127.595 128.35 126.791 128.746 126.326 129.565C125.702 128.583 125.563 127.549 125.274 126.585C125.011 125.715 124.793 125.39 123.991 126.167C123.281 126.857 122.442 127.414 121.509 128.152C121.325 126.644 121.166 125.334 120.988 123.88L117.223 125.808C117.084 124.596 117.354 123.504 117.46 122.418C117.547 121.547 117.208 121.591 116.63 121.765C115.869 121.982 115.108 122.2 114.354 122.452C113.654 122.685 113.298 122.67 113.611 121.765C113.95 120.779 114.193 119.762 114.48 118.746C113.902 118.522 113.365 118.7 112.835 118.685Z" fill="#E5C17B"/>
<path d="M147.541 114.326C148.487 114.641 148.613 115.307 148.061 115.991C147.309 116.92 147.026 118.113 146.233 118.998C146.166 119.075 146.072 119.242 146.098 119.275C146.909 120.23 146.159 120.966 145.768 121.754C144.768 121.445 144.642 121.884 144.796 122.764C144.968 123.736 144.996 124.735 145.103 125.893L141.24 123.867C141.067 125.316 140.906 126.648 140.719 128.196C139.695 127.364 138.813 126.653 137.939 125.93C137.595 125.647 137.287 125.41 137.087 126.05C136.393 125.893 136.787 125.303 136.652 124.929L136.891 124.746C137.18 124.785 137.472 124.718 137.715 124.557C139.067 123.628 140.597 123.014 141.971 122.135C143.006 121.438 143.99 120.667 144.914 119.828C145.509 119.308 145.674 118.679 144.809 118.185L147.541 114.326Z" fill="#D8A94B"/>
<path d="M136.641 124.929C136.787 125.303 136.393 125.893 137.076 126.05C136.756 127.186 136.437 128.324 136.05 129.698L133.194 126.285L131.179 130C130.447 129.221 130.142 128.294 129.68 127.467C129.01 126.268 129.027 126.261 128.147 127.249C128.04 127.341 127.92 127.419 127.793 127.48C127.445 126.814 127.576 126.091 127.547 125.386H128.851C129.697 125.834 130.601 125.515 131.475 125.582C133.246 125.704 134.926 125.19 136.641 124.929Z" fill="#E0B564"/>
<path d="M137.169 84.2004L136.85 85.0405C134.855 84.6944 132.898 84.1112 130.825 84.3527C130.29 84.3527 129.756 84.3397 129.221 84.3397C127.689 84.3397 127.482 84.035 128.015 82.5442C129.045 83.6324 129.045 83.6324 129.777 82.2678C130.153 81.5713 130.527 80.8727 130.905 80.1785C130.938 80.1219 131.014 80.0914 131.134 80C131.753 80.7835 132.149 81.6932 132.618 82.5572C133.211 83.6454 133.201 83.6454 133.961 82.7226C134.6 81.95 135.25 81.1992 136.028 80.2633C136.45 81.6845 136.952 82.8968 137.169 84.2004Z" fill="#E0B564"/>
<path d="M118.89 128.098V128.124C118.771 127.943 118.61 128.002 118.456 128.05C118.456 128.07 118.456 128.096 118.477 128.109C118.616 128.237 118.755 128.279 118.89 128.098Z" fill="#474747"/>
<path d="M126.908 124.977C124.591 124.772 122.55 123.926 120.659 122.557C118.84 121.251 117.275 119.647 115.541 118.245C114.367 117.297 113.696 115.952 112.839 114.763C112.826 114.121 112.8 113.479 112.798 112.837C112.798 111.342 112.798 111.342 111.307 111.253C111.248 110.937 111.192 110.619 111.135 110.304C110.713 107.979 110.294 105.688 110.55 103.27C110.74 101.505 111.231 99.8311 111.524 98.1031C112.702 97.9769 111.876 97.0149 112.176 96.5165C112.928 95.2912 113.437 93.9049 114.43 92.8406C116.321 90.8188 118.456 89.069 120.662 87.3997C122.397 86.0356 124.486 85.198 126.682 84.9861C126.91 85.4692 127.213 85.9306 127.106 86.5095C126.019 86.6619 124.95 86.8991 124.035 87.5694C122.853 87.8676 121.82 88.4748 120.82 89.1495C117.822 90.9668 115.441 93.6483 113.989 96.843C111.35 102.673 111.565 108.437 114.539 114.126C115.877 116.724 117.898 118.906 120.386 120.437C122.383 122.002 124.661 122.944 127.123 123.467C127.119 123.978 127.2 124.502 126.908 124.977Z" fill="#F2DAAA"/>
<path d="M111.524 98.0944C111.231 99.8225 110.74 101.496 110.55 103.261C110.294 105.679 110.713 107.971 111.135 110.295C111.192 110.611 111.248 110.928 111.307 111.244C110.611 112.389 110.398 113.758 109.638 114.87C107.957 114.511 107.957 114.511 109.038 113.142C110.596 111.17 110.598 111.17 108.192 110.415C107.679 110.254 107.162 110.101 106.453 109.888L109.761 107.059L106.066 105.022C106.982 104.273 107.986 103.827 108.959 103.344C109.698 102.976 109.653 102.691 109.057 102.219C108.21 101.566 107.401 100.852 106.449 100.055L109.383 99.1391C110.653 98.743 110.648 98.7452 109.833 97.7462C109.222 97.0019 108.625 96.2467 108.007 95.4784C108.46 95.1019 108.916 95.2804 109.312 95.189C109.811 95.8049 110.09 96.5405 110.37 97.2609C110.592 97.8267 110.9 98.1445 111.524 98.0944Z" fill="#E5C17B"/>
<path d="M147.541 114.326L144.812 118.193C144.34 118.33 144.105 118.761 143.757 119.051C143.105 119.582 142.575 120.267 141.688 120.435C141.688 120.217 141.699 120 141.706 119.782C142.849 119.057 143.773 118.08 144.662 117.088C148.287 113.037 149.784 108.23 149.193 102.878C148.613 97.6548 146.057 93.4261 141.888 90.2029V89.526L142.282 89.5761C144.186 91.1546 145.878 92.9748 147.313 94.9909C148.835 97.7375 149.845 100.632 150.008 103.803C150.147 106.469 149.848 109.055 148.839 111.54C148.726 111.54 148.654 111.586 148.691 111.718C148.646 112.036 148.624 112.371 148.398 112.624C148.28 112.624 148.217 112.68 148.241 112.807C148.204 113.399 147.607 113.734 147.541 114.326Z" fill="#F2DAAA"/>
<path d="M149.113 95.1628C152.532 100.064 152.634 109.875 149.009 114.874C152.072 108.31 152.107 101.74 149.113 95.1628Z" fill="#C48E30"/>
<path d="M148.765 115.394L148.737 115.468L148.654 115.383L148.715 115.327L148.765 115.394Z" fill="#C48E30"/>
<path d="M148.685 111.712C148.648 111.579 148.719 111.54 148.832 111.533L148.685 111.712Z" fill="#D8A94B"/>
<path d="M148.235 112.8C148.211 112.674 148.274 112.624 148.391 112.617L148.235 112.8Z" fill="#D8A94B"/>
<path d="M120.829 89.1408C121.829 88.4661 122.861 87.8589 124.044 87.5607C124.223 87.6799 124.428 87.7535 124.642 87.7751C124.856 87.7967 125.072 87.7657 125.272 87.6848C127.445 86.9948 129.673 86.5966 131.964 86.7467C133.033 86.8186 134.094 87.021 135.159 87.1646C137.046 87.5019 138.73 88.3333 140.375 89.2866C139.506 89.169 138.943 89.6261 138.504 90.2921C138.065 90.958 137.732 91.0603 136.982 90.5576C134.211 88.6902 131.114 88.1919 127.871 88.8752C124.493 89.576 121.922 91.6022 119.788 94.1965C114.326 100.837 113.891 107.877 118.449 114.674C122.55 120.785 130.038 123.007 136.111 119.956C137.645 119.183 138.719 118.957 139.78 120.457C139.856 120.563 140.023 120.607 140.147 120.674C138.204 122.08 135.948 122.609 133.644 123.014C128.925 123.61 124.596 122.542 120.616 119.967C119.302 118.963 118.106 117.814 117.049 116.541C113.23 111.884 112.25 106.552 113.406 100.804C114.239 96.6688 116.436 93.2911 119.779 90.6751C120.262 90.2964 120.896 89.9308 120.829 89.1408Z" fill="#E2B573"/>
<path d="M142.275 89.576L141.882 89.526C139.925 87.8937 137.6 87.0688 135.155 86.5204C134.25 86.1439 133.298 86.0851 132.329 86.0851C130.808 86.0851 130.808 86.0851 130.808 84.5878C131.894 84.7227 132.992 84.9621 134.085 84.9643C135.1 84.9643 136.041 85.6477 137.08 85.2298C138.452 85.5301 139.43 86.6096 140.727 87.0754C141.284 87.2756 141.769 87.6891 142.268 88.0308C143.192 88.6402 143.186 88.8469 142.275 89.576Z" fill="#E0B564"/>
<path d="M135.155 86.5139C137.6 87.0624 139.921 87.8872 141.882 89.5195V90.1963C141.599 90.0527 141.317 89.9091 141.036 89.7611C141.025 89.2975 140.664 89.3258 140.36 89.2823C138.723 88.329 137.039 87.4976 135.144 87.1603C135.157 86.947 135.155 86.7316 135.155 86.5139Z" fill="#ECCF95"/>
<path d="M137.089 85.2233C136.05 85.6412 135.109 84.9578 134.094 84.9578C133.007 84.9578 131.91 84.7162 130.816 84.5813C130.816 84.5073 130.816 84.4311 130.816 84.3636C132.879 84.122 134.846 84.7053 136.841 85.0514L137.089 85.2233Z" fill="#ECCF95"/>
<path d="M127.115 86.4987C127.221 85.922 126.919 85.4606 126.691 84.9752C126.926 84.8147 127.203 84.7266 127.488 84.7215C127.772 84.7165 128.052 84.7949 128.293 84.9469C128.56 85.108 128.475 85.5563 128.38 85.8545C128.184 86.4726 127.504 86.2136 127.115 86.4987Z" fill="#ECCF95"/>
<path d="M147.094 92.155C147.25 92.1877 147.435 92.1877 147.418 92.4249C147.413 92.4411 147.405 92.4558 147.393 92.4676C147.381 92.4795 147.366 92.488 147.35 92.4924C147.113 92.5098 147.115 92.3226 147.083 92.1681L147.094 92.155Z" fill="#D4A23A"/>
<path d="M147.083 92.1682L146.994 92.1116L147.094 92.1551L147.083 92.1682Z" fill="#D4A23A"/>
<path d="M126.908 124.977C127.2 124.503 127.126 123.978 127.126 123.453C128.864 123.869 128.864 123.869 128.864 125.395H127.56L126.908 124.977Z" fill="#ECCF95"/>
<path d="M141.688 120.435C142.575 120.267 143.114 119.582 143.757 119.051C144.105 118.761 144.34 118.33 144.811 118.193C145.681 118.687 145.509 119.316 144.914 119.836C143.986 120.673 142.999 121.441 141.96 122.135C140.586 123.005 139.056 123.628 137.704 124.557C137.461 124.718 137.169 124.785 136.88 124.746C136.752 124.576 136.596 124.629 136.411 124.648C134.763 124.829 133.151 125.251 131.468 125.19C130.886 125.086 131.023 124.637 131.062 124.272C131.11 123.817 131.497 123.926 131.803 123.882C132.412 123.793 133.072 124.111 133.635 123.665C136.154 123.367 138.584 122.556 140.777 121.281C141.049 121.127 141.393 121.049 141.471 120.67L141.688 120.435Z" fill="#E0B564"/>
<path d="M131.468 125.19C133.142 125.251 134.763 124.829 136.411 124.648C136.596 124.629 136.752 124.576 136.88 124.746L136.641 124.929C134.926 125.19 133.246 125.702 131.484 125.599C131.479 125.462 131.475 125.327 131.468 125.19Z" fill="#ECCF95"/>
<path d="M131.468 125.19C131.468 125.327 131.479 125.462 131.484 125.599C130.614 125.532 129.706 125.852 128.86 125.404C128.86 123.88 128.86 123.88 127.121 123.462C124.657 122.94 122.379 121.998 120.383 120.433C120.464 120.387 120.529 120.319 120.571 120.238C120.614 120.156 120.632 120.063 120.623 119.971C124.602 122.548 128.932 123.617 133.651 123.018C133.651 123.236 133.651 123.454 133.651 123.654C133.088 124.109 132.427 123.791 131.818 123.871C131.516 123.915 131.125 123.806 131.077 124.261C131.023 124.637 130.886 125.086 131.468 125.19Z" fill="#E5C17B"/>
<path d="M120.616 119.971C120.625 120.063 120.607 120.156 120.565 120.237C120.522 120.319 120.457 120.387 120.377 120.433C117.89 118.902 115.868 116.719 114.53 114.121C111.557 108.432 111.342 102.669 113.98 96.8386C115.436 93.6399 117.823 90.9565 120.829 89.1407C120.896 89.9329 120.262 90.2986 119.779 90.6773C116.436 93.2889 114.239 96.6819 113.406 100.806C112.244 106.554 113.23 111.886 117.049 116.548C118.106 117.819 119.303 118.968 120.616 119.971V119.971Z" fill="#E0B564"/>
<path d="M141.043 89.7632C141.323 89.909 141.606 90.0526 141.888 90.1985C146.057 93.4217 148.613 97.6417 149.193 102.874C149.784 108.225 148.287 113.033 144.662 117.083C143.773 118.076 142.849 119.053 141.706 119.775C141.69 117.316 141.692 114.855 141.645 112.395C141.645 112.017 142.001 111.366 141.197 111.307C140.556 111.255 139.925 111.161 139.71 112.095C139.5 112.863 139.202 113.604 138.821 114.304C137.487 116.972 135.598 119.007 132.542 119.664C127.819 120.683 125.324 119.112 124.846 114.361C124.259 108.524 124.37 102.652 124.846 96.7994C124.967 95.3216 125.2 93.8548 125.802 92.4771C126.313 91.3084 127.132 90.4662 128.41 90.2463C131.933 89.637 134.931 90.5249 137.139 93.4891C138.044 94.7114 138.775 96.0531 139.313 97.4763C139.56 98.1292 140.032 98.0704 140.536 98.0486C141.212 98.0203 140.971 97.4893 140.971 97.152C141.021 94.684 141.027 92.2247 141.043 89.7632Z" fill="#E2B573"/>
<path d="M141.043 89.7632C141.027 92.2247 141.021 94.684 140.986 97.1433C140.986 97.4807 141.221 98.0139 140.551 98.04C140.047 98.0617 139.576 98.1183 139.328 97.4676C138.79 96.0445 138.059 94.7027 137.154 93.4805C134.944 90.5163 131.949 89.6283 128.425 90.2377C127.15 90.4553 126.33 91.2998 125.817 92.4685C125.215 93.8461 124.983 95.313 124.861 96.7907C124.378 102.643 124.267 108.515 124.861 114.352C125.339 119.103 127.834 120.663 132.557 119.656C135.613 119.003 137.502 116.964 138.837 114.295C139.217 113.596 139.515 112.855 139.726 112.086C139.943 111.153 140.571 111.246 141.212 111.298C142.016 111.364 141.647 112.014 141.66 112.387C141.708 114.846 141.706 117.307 141.721 119.767C141.721 119.984 141.721 120.202 141.703 120.42L141.486 120.648L140.165 120.666C140.041 120.592 139.873 120.548 139.797 120.448C138.745 118.948 137.663 119.175 136.128 119.947C130.056 122.994 122.568 120.777 118.466 114.665C113.902 107.868 114.337 100.828 119.805 94.1878C121.94 91.5936 124.511 89.5739 127.882 88.8644C131.142 88.181 134.222 88.6794 136.993 90.5467C137.741 91.0495 138.091 90.9167 138.515 90.2812C138.939 89.6457 139.519 89.1582 140.386 89.2757C140.671 89.3301 141.032 89.2997 141.043 89.7632Z" fill="#3E1761"/>
<path d="M140.147 120.681L141.469 120.663C141.393 121.042 141.049 121.12 140.777 121.275C138.584 122.55 136.154 123.361 133.635 123.658C133.635 123.44 133.635 123.223 133.635 123.02C135.941 122.616 138.204 122.087 140.147 120.681Z" fill="#ECCF95"/>
</g>
<defs>
<clipPath id="clip0">
<rect width="153" height="50" fill="white" transform="translate(54 80)"/>
</clipPath>
</defs>
</svg>
