<svg width="30" height="30" viewBox="0 0 30 30" fill="none" xmlns="http://www.w3.org/2000/svg">
<path d="M26.7853 0H3.21424C2.36177 0 1.54421 0.338642 0.941428 0.941428C0.338642 1.54421 0 2.36177 0 3.21424L0 26.7853C0 27.6378 0.338642 28.4553 0.941428 29.0581C1.54421 29.6609 2.36177 29.9995 3.21424 29.9995H12.4049V19.8004H8.18626V14.9998H12.4049V11.3409C12.4049 7.17913 14.8826 4.88028 18.6774 4.88028C20.4948 4.88028 22.3952 5.20438 22.3952 5.20438V9.28914H20.3012C18.2381 9.28914 17.5946 10.5695 17.5946 11.8826V14.9998H22.2003L21.4637 19.8004H17.5946V29.9995H26.7853C27.6378 29.9995 28.4553 29.6609 29.0581 29.0581C29.6609 28.4553 29.9995 27.6378 29.9995 26.7853V3.21424C29.9995 2.36177 29.6609 1.54421 29.0581 0.941428C28.4553 0.338642 27.6378 0 26.7853 0V0Z" fill="#3E1761"/>
</svg>
