<svg width="239" height="51" viewBox="0 0 239 51" fill="none" xmlns="http://www.w3.org/2000/svg">
<path fill-rule="evenodd" clip-rule="evenodd" d="M36.881 27.1544V11.3782H52.7758V13.3848H39.3698V17.993H50.5131V19.9727H39.3417V25.1759H52.7758V27.1544H36.881Z" fill="white"/>
<path fill-rule="evenodd" clip-rule="evenodd" d="M60.3288 15.3081V27.1532H57.84V10.8135L74.2445 23.3931V11.3781H76.704V27.7201L60.3288 15.3081Z" fill="white"/>
<path fill-rule="evenodd" clip-rule="evenodd" d="M99.8689 25.7409C97.8043 27.0974 95.2029 27.7205 92.3744 27.7205C85.7563 27.7205 81.0892 23.9592 81.0892 19.2655C81.0892 14.5729 85.7563 10.8127 92.3744 10.8127C95.2311 10.8127 97.8324 11.464 99.8689 12.8205V15.0251C98.0867 13.8103 95.3166 12.7912 92.3744 12.7912C87.4823 12.7912 83.7209 15.6459 83.7209 19.2655C83.7209 22.8851 87.4823 25.7409 92.3744 25.7409C95.3166 25.7409 98.0597 24.7511 99.8689 23.5082V25.7409Z" fill="white"/>
<path fill-rule="evenodd" clip-rule="evenodd" d="M115.625 12.7916C110.731 12.7916 106.97 15.3651 106.97 19.267C106.97 23.1958 110.759 25.7412 115.625 25.7412C120.546 25.7412 124.307 23.1958 124.307 19.267C124.307 15.3651 120.518 12.7916 115.625 12.7916ZM115.625 27.7196C109.063 27.7196 104.368 24.271 104.368 19.2669C104.368 14.2616 109.063 10.813 115.625 10.813C122.185 10.813 126.91 14.2616 126.91 19.2669C126.91 24.271 122.327 27.7196 115.625 27.7196Z" fill="white"/>
<path fill-rule="evenodd" clip-rule="evenodd" d="M156.071 27.1545L151.856 15.7604L144.106 27.7203L136.385 15.7604L132.171 27.1545H129.541L135.679 10.8125L144.106 23.7329L152.563 10.8125L158.701 27.1545H156.071Z" fill="white"/>
<path fill-rule="evenodd" clip-rule="evenodd" d="M165.405 13.3848V19.0121H172.76C175.162 19.0121 176.436 17.9098 176.436 16.2125C176.436 14.5152 175.162 13.3848 172.76 13.3848H165.405ZM165.405 21.0186V27.1543H162.916V11.377H173.267C176.832 11.377 178.981 13.5545 178.981 16.2124C178.981 18.8433 176.832 21.0186 173.267 21.0186H165.405Z" fill="white"/>
<path fill-rule="evenodd" clip-rule="evenodd" d="M188.908 14.8555L185.033 21.0193H192.783L188.908 14.8555ZM196.574 27.1551L193.972 23.0261H183.846L181.245 27.1551H178.388L188.908 10.812L199.459 27.1551H196.574Z" fill="white"/>
<path fill-rule="evenodd" clip-rule="evenodd" d="M217.617 14.0349C215.722 13.243 213.487 12.819 211.027 12.819C209.075 12.819 205.145 12.9045 205.145 15.2238C205.145 19.0402 218.804 16.0718 218.804 22.8847C218.804 27.0126 214.109 27.7201 210.151 27.7201C207.52 27.7201 204.55 27.2387 202.287 26.3917L202.316 24.2153C204.579 25.1466 207.634 25.7405 210.065 25.7405C213.006 25.7405 216.343 25.2883 216.343 22.8847C216.343 18.5869 202.683 21.725 202.683 15.2238C202.683 11.4906 207.152 10.8135 211.027 10.8135C213.713 10.8135 216.089 11.3489 217.73 12.0271L217.617 14.0349Z" fill="white"/>
<path fill-rule="evenodd" clip-rule="evenodd" d="M237.813 14.0349C235.918 13.243 233.683 12.819 231.224 12.819C229.272 12.819 225.341 12.9045 225.341 15.2238C225.341 19.0402 239 16.0718 239 22.8847C239 27.0126 234.306 27.7201 230.347 27.7201C227.716 27.7201 224.747 27.2387 222.484 26.3917L222.512 24.2153C224.775 25.1466 227.83 25.7405 230.261 25.7405C233.202 25.7405 236.54 25.2883 236.54 22.8847C236.54 18.5869 222.88 21.725 222.88 15.2238C222.88 11.4906 227.348 10.8135 231.224 10.8135C233.91 10.8135 236.286 11.3489 237.926 12.0271L237.813 14.0349Z" fill="white"/>
<path fill-rule="evenodd" clip-rule="evenodd" d="M39.0878 50.5454L13.7362 7.82723C13.4482 7.34245 13.2119 7.40769 13.2119 7.9712V19.2663C13.2119 19.8298 13.5112 20.6408 13.8746 21.0716L38.9472 50.6433C39.3128 51.0741 39.3747 51.0302 39.0878 50.5454Z" fill="white"/>
<path fill-rule="evenodd" clip-rule="evenodd" d="M14.1261 28.9604C11.3515 28.9604 8.79519 28.0505 6.71594 26.5309C6.73957 26.5073 6.76882 26.4994 6.7902 26.4724L11.3695 21.0712C11.7341 20.6415 12.0311 19.8294 12.0311 19.2659V7.97082C12.0311 7.40731 11.7971 7.34319 11.509 7.82798L3.057 22.0689C3.02887 22.115 3.01762 22.178 2.99511 22.2308C2.077 20.4829 1.55044 18.4988 1.55044 16.3865C1.55044 9.44429 7.18175 3.81587 14.1261 3.81587C21.0727 3.81587 26.704 9.44429 26.704 16.3865C26.704 19.1692 25.7881 21.7326 24.258 23.8157L25.4326 25.7964C27.9236 23.1588 29.4595 19.6112 29.4595 15.6981C29.4595 7.5659 22.865 0.972412 14.7314 0.972412C6.59555 0.972412 0 7.5659 0 15.6981C0 23.8314 6.59555 30.4249 14.7314 30.4249C16.5328 30.4249 18.2531 30.0841 19.8485 29.4925L18.6694 28.1C17.2596 28.6489 15.7305 28.9604 14.1261 28.9604Z" fill="white"/>
</svg>
