<svg xmlns="http://www.w3.org/2000/svg" xmlns:xlink="http://www.w3.org/1999/xlink" viewBox="0 0 125.63 32.88"><defs><style>.cls-1{fill:none;}.cls-2{clip-path:url(#clip-path);}.cls-3{fill:url(#linear-gradient);}.cls-4{clip-path:url(#clip-path-2);}.cls-5{fill:url(#linear-gradient-2);}.cls-6{clip-path:url(#clip-path-3);}.cls-7{fill:url(#linear-gradient-3);}.cls-8{clip-path:url(#clip-path-4);}.cls-9{fill:url(#linear-gradient-4);}.cls-10{clip-path:url(#clip-path-5);}.cls-11{fill:#fff;}.cls-12{clip-path:url(#clip-path-6);}.cls-13{fill:url(#linear-gradient-5);}</style><clipPath id="clip-path" transform="translate(-0.01)"><polygon class="cls-1" points="24.4 28.77 14.02 23.12 20.89 17.97 27.51 21.34 27.51 21.34 24.4 28.77 24.4 28.77"/></clipPath><linearGradient id="linear-gradient" x1="-373.65" y1="138.98" x2="-372.65" y2="138.98" gradientTransform="matrix(0, -10.8, -10.89, 0, 1534.25, -4007.52)" gradientUnits="userSpaceOnUse"><stop offset="0" stop-color="#27255e"/><stop offset="0.66" stop-color="#5f5ea9"/><stop offset="1" stop-color="#22aadf"/></linearGradient><clipPath id="clip-path-2" transform="translate(-0.01)"><polygon class="cls-1" points="0.8 26.44 10.2 6.2 10.2 6.2 17.64 7.31 8.63 27.32 0.8 26.44"/></clipPath><linearGradient id="linear-gradient-2" x1="-378.22" y1="154.54" x2="-377.22" y2="154.54" gradientTransform="matrix(0, -21.11, -21.29, 0, 3298.78, -7958.54)" gradientUnits="userSpaceOnUse"><stop offset="0" stop-color="#5f5da9"/><stop offset="1" stop-color="#20aadf"/></linearGradient><clipPath id="clip-path-3" transform="translate(-0.01)"><path class="cls-1" d="M3,21.68.1,28a1.07,1.07,0,0,0-.09.34v.2a1,1,0,0,0,1.32.89l25-7-2.44-7Z"/></clipPath><linearGradient id="linear-gradient-3" x1="-375.81" y1="146.35" x2="-374.81" y2="146.35" gradientTransform="matrix(0, -14.05, -14.17, 0, 2086.71, -5252.36)" xlink:href="#linear-gradient-2"/><clipPath id="clip-path-4" transform="translate(-0.01)"><path class="cls-1" d="M12.71.71,9.87,6.93l13.44,21.3a1.12,1.12,0,0,0,.94.54h.07a1.17,1.17,0,0,0,1-.64l2.54-5.21a1.16,1.16,0,0,0-.05-1.1L14.75.59a1.15,1.15,0,0,0-1-.55,1.14,1.14,0,0,0-1,.67"/></clipPath><linearGradient id="linear-gradient-4" x1="-379.49" y1="158.86" x2="-378.49" y2="158.86" gradientTransform="matrix(0, -28.74, -28.97, 0, 4621.12, -10876.06)" xlink:href="#linear-gradient-2"/><clipPath id="clip-path-5" transform="translate(-0.01)"><rect class="cls-1" width="167.6" height="33.84"/></clipPath><clipPath id="clip-path-6" transform="translate(-0.01)"><path class="cls-1" d="M15.88,0a1.19,1.19,0,0,0-.37.06L28.88,21.78a1.17,1.17,0,0,1,.05,1.13l-2.64,5.41a1.34,1.34,0,0,1-.18.28,1.15,1.15,0,0,0,1.3-.62L30,22.79a1.12,1.12,0,0,0-.06-1.09L16.87.55a1.1,1.1,0,0,0-1-.55Z"/></clipPath><linearGradient id="linear-gradient-5" x1="-379.47" y1="158.82" x2="-378.47" y2="158.82" gradientTransform="matrix(0, -28.63, -28.86, 0, 4606.27, -10834.61)" xlink:href="#linear-gradient-2"/></defs><g id="Layer_2" data-name="Layer 2"><g id="Layer_1-2" data-name="Layer 1"><g class="cls-2"><rect class="cls-3" x="14.01" y="17.97" width="13.5" height="10.8"/></g><g class="cls-4"><rect class="cls-5" x="0.8" y="6.2" width="16.84" height="21.12"/></g><g class="cls-6"><rect class="cls-7" y="15.36" width="26.27" height="14.2"/></g><g class="cls-8"><rect class="cls-9" x="9.86" y="0.04" width="18.18" height="28.74"/></g><g class="cls-10"><path class="cls-11" d="M39.69,26.44A6,6,0,0,1,35.34,25,5.32,5.32,0,0,1,34,21.21c0-3,2.19-4.81,5.87-4.81h4.64V15.08c0-2.22-1.21-3.26-3.81-3.26a4.34,4.34,0,0,0-3.5,1.38L34.9,11C36.47,9.4,38,8.85,40.84,8.85c4.93,0,7.33,2,7.33,6V26.27H44.58V24.12l-.72.71a5.16,5.16,0,0,1-4.17,1.61m.9-7.79c-2.7,0-3.11,1.56-3.11,2.49,0,.74.31,2.46,3.18,2.46a3.87,3.87,0,0,0,3-1A3.21,3.21,0,0,0,44.47,20V18.65Z" transform="translate(-0.01)"/><path class="cls-11" d="M51.38,32.88V9.06h3.56v2.37l.74-.81A5.06,5.06,0,0,1,59.9,8.85a5.74,5.74,0,0,1,4.1,1.5c1.63,1.65,1.76,4.39,1.76,7.29S65.63,23.32,64,25a5.69,5.69,0,0,1-4.1,1.5,4.92,4.92,0,0,1-4.08-1.65L55.08,24v8.91Zm7.19-20.81c-3.22,0-3.49,2.88-3.49,5.57s.27,5.62,3.49,5.62,3.5-2.9,3.5-5.62-.27-5.57-3.5-5.57" transform="translate(-0.01)"/><path class="cls-11" d="M74,26.27a4.51,4.51,0,0,1-4.85-4.75V12.17H67.22V9.58h1.92V4.24h3.7V9.58h3.21v2.59H72.84v9.08a1.81,1.81,0,0,0,2,2h1.22v3Z" transform="translate(-0.01)"/><path class="cls-11" d="M85.42,26.47c-5.3,0-8-3-8-8.83,0-5.42,2.87-8.79,7.5-8.79s7.51,3.18,7.51,8.31v1.49H81.06v.41a4.14,4.14,0,0,0,4.4,4.44A5.42,5.42,0,0,0,89.57,22l2.16,2.09a8,8,0,0,1-6.31,2.42m-.49-14.72a3.6,3.6,0,0,0-3.42,2.12A4.64,4.64,0,0,0,81.06,16l0,.44h7.79l0-.44a4.86,4.86,0,0,0-.46-2.1,3.61,3.61,0,0,0-3.42-2.11" transform="translate(-0.01)"/><path class="cls-11" d="M99.67,26.44A6,6,0,0,1,95.32,25a5.32,5.32,0,0,1-1.38-3.76c0-3,2.19-4.81,5.87-4.81h4.64V15.08c0-2.22-1.21-3.26-3.81-3.26a4.34,4.34,0,0,0-3.5,1.38L94.88,11C96.44,9.4,98,8.85,100.82,8.85c4.93,0,7.33,2,7.33,6V26.27h-3.59V24.12l-.72.71a5.16,5.16,0,0,1-4.17,1.61m.9-7.79c-2.7,0-3.11,1.56-3.11,2.49,0,.74.31,2.46,3.18,2.46a3.87,3.87,0,0,0,3-1,3.21,3.21,0,0,0,.83-2.59V18.65Z" transform="translate(-0.01)"/><path class="cls-11" d="M121.94,26.27V15.77c0-1.71-.89-3.7-3.42-3.7a3.36,3.36,0,0,0-3.46,3.7v10.5h-3.7V9.06H115v2.29l.72-.76a5.83,5.83,0,0,1,4.24-1.74,5.52,5.52,0,0,1,4,1.47,6.22,6.22,0,0,1,1.73,4.83V26.27Z" transform="translate(-0.01)"/></g><g class="cls-12"><rect class="cls-13" x="15.51" width="14.61" height="28.71"/></g></g></g></svg>