<svg width="239" height="50" viewBox="0 0 239 50" fill="none" xmlns="http://www.w3.org/2000/svg">
<path fill-rule="evenodd" clip-rule="evenodd" d="M36.881 26.182V10.4058H52.7758V12.4124H39.3698V17.0206H50.5131V19.0002H39.3417V24.2035H52.7758V26.182H36.881Z" fill="#043674"/>
<path fill-rule="evenodd" clip-rule="evenodd" d="M60.3288 14.3357V26.1808H57.84V9.84106L74.2445 22.4207V10.4057H76.704V26.7477L60.3288 14.3357Z" fill="#043674"/>
<path fill-rule="evenodd" clip-rule="evenodd" d="M99.8689 24.7685C97.8043 26.125 95.2029 26.7481 92.3744 26.7481C85.7563 26.7481 81.0892 22.9868 81.0892 18.2931C81.0892 13.6005 85.7563 9.84033 92.3744 9.84033C95.2311 9.84033 97.8324 10.4916 99.8689 11.8481V14.0527C98.0867 12.8379 95.3166 11.8188 92.3744 11.8188C87.4823 11.8188 83.7209 14.6735 83.7209 18.2931C83.7209 21.9126 87.4823 24.7685 92.3744 24.7685C95.3166 24.7685 98.0597 23.7787 99.8689 22.5358V24.7685Z" fill="#043674"/>
<path fill-rule="evenodd" clip-rule="evenodd" d="M115.625 11.8192C110.731 11.8192 106.97 14.3927 106.97 18.2946C106.97 22.2234 110.759 24.7688 115.625 24.7688C120.546 24.7688 124.307 22.2234 124.307 18.2946C124.307 14.3927 120.518 11.8192 115.625 11.8192M115.625 26.7472C109.063 26.7472 104.368 23.2986 104.368 18.2945C104.368 13.2892 109.063 9.84058 115.625 9.84058C122.185 9.84058 126.91 13.2892 126.91 18.2945C126.91 23.2986 122.327 26.7472 115.625 26.7472" fill="#043674"/>
<path fill-rule="evenodd" clip-rule="evenodd" d="M156.071 26.1821L151.856 14.788L144.106 26.7479L136.385 14.788L132.171 26.1821H129.541L135.679 9.84009L144.106 22.7605L152.563 9.84009L158.701 26.1821H156.071Z" fill="#043674"/>
<path fill-rule="evenodd" clip-rule="evenodd" d="M165.405 12.4124V18.0396H172.76C175.162 18.0396 176.436 16.9374 176.436 15.2401C176.436 13.5428 175.162 12.4124 172.76 12.4124H165.405ZM165.405 20.0462V26.1819H162.916V10.4045H173.267C176.832 10.4045 178.981 12.5821 178.981 15.24C178.981 17.8709 176.832 20.0462 173.267 20.0462H165.405Z" fill="#043674"/>
<path fill-rule="evenodd" clip-rule="evenodd" d="M188.908 13.8831L185.033 20.0469H192.783L188.908 13.8831ZM196.574 26.1827L193.972 22.0536H183.846L181.245 26.1827H178.388L188.908 9.8396L199.459 26.1827H196.574Z" fill="#043674"/>
<path fill-rule="evenodd" clip-rule="evenodd" d="M217.617 13.0624C215.722 12.2706 213.487 11.8466 211.027 11.8466C209.075 11.8466 205.145 11.932 205.145 14.2513C205.145 18.0677 218.804 15.0994 218.804 21.9123C218.804 26.0402 214.109 26.7477 210.151 26.7477C207.52 26.7477 204.55 26.2663 202.287 25.4193L202.316 23.2429C204.579 24.1742 207.634 24.7681 210.065 24.7681C213.006 24.7681 216.343 24.3159 216.343 21.9123C216.343 17.6145 202.683 20.7526 202.683 14.2513C202.683 10.5182 207.152 9.84106 211.027 9.84106C213.713 9.84106 216.089 10.3765 217.73 11.0547L217.617 13.0624Z" fill="#043674"/>
<path fill-rule="evenodd" clip-rule="evenodd" d="M237.813 13.0624C235.918 12.2706 233.683 11.8466 231.224 11.8466C229.272 11.8466 225.341 11.932 225.341 14.2513C225.341 18.0677 239 15.0994 239 21.9123C239 26.0402 234.306 26.7477 230.347 26.7477C227.716 26.7477 224.747 26.2663 222.484 25.4193L222.512 23.2429C224.775 24.1742 227.83 24.7681 230.261 24.7681C233.202 24.7681 236.54 24.3159 236.54 21.9123C236.54 17.6145 222.88 20.7526 222.88 14.2513C222.88 10.5182 227.348 9.84106 231.224 9.84106C233.91 9.84106 236.286 10.3765 237.926 11.0547L237.813 13.0624Z" fill="#043674"/>
<path fill-rule="evenodd" clip-rule="evenodd" d="M39.0878 49.573L13.7362 6.85482C13.4482 6.37004 13.2119 6.43527 13.2119 6.99879V18.2939C13.2119 18.8574 13.5112 19.6684 13.8746 20.0992L38.9472 49.6709C39.3128 50.1017 39.3747 50.0578 39.0878 49.573" fill="#043674"/>
<path fill-rule="evenodd" clip-rule="evenodd" d="M14.1261 27.988C11.3515 27.988 8.79519 27.0781 6.71594 25.5585C6.73957 25.5349 6.76882 25.527 6.7902 25.5L11.3695 20.0988C11.7341 19.6691 12.0311 18.857 12.0311 18.2935V6.99841C12.0311 6.43489 11.7971 6.37078 11.509 6.85556L3.057 21.0965C3.02887 21.1426 3.01762 21.2056 2.99511 21.2584C2.077 19.5105 1.55044 17.5264 1.55044 15.4141C1.55044 8.47188 7.18175 2.84346 14.1261 2.84346C21.0727 2.84346 26.704 8.47188 26.704 15.4141C26.704 18.1968 25.7881 20.7602 24.258 22.8433L25.4326 24.824C27.9236 22.1864 29.4595 18.6388 29.4595 14.7257C29.4595 6.59349 22.865 0 14.7314 0C6.59555 0 0 6.59349 0 14.7257C0 22.859 6.59555 29.4525 14.7314 29.4525C16.5328 29.4525 18.2531 29.1117 19.8485 28.52L18.6694 27.1276C17.2596 27.6765 15.7305 27.988 14.1261 27.988" fill="#043674"/>
</svg>
