<svg width="135" height="151" viewBox="0 0 135 151" fill="none" xmlns="http://www.w3.org/2000/svg">
<path d="M0 2.86796C0 1.28403 1.28403 0 2.86796 0H132.132C133.716 0 135 1.28403 135 2.86796V148.132C135 149.716 133.716 151 132.132 151H2.86796C1.28403 151 0 149.716 0 148.132V2.86796Z" fill="#3E1761"/>
<g clip-path="url(#clip0)">
<path d="M25 67.1419C27.1399 67.1419 29.2811 67.1419 31.421 67.1251C31.7744 67.1251 31.9536 67.2689 32.1423 67.5325C34.2862 70.5547 36.4366 73.5764 38.5933 76.5977C38.7136 76.7678 38.8434 76.9344 39.0562 77.2196C39.0718 76.8913 39.0886 76.7043 39.0886 76.5174C39.0886 74.0453 39.0706 71.5732 39.1031 69.1011C39.1115 68.4816 38.8626 68.1808 38.3024 68.0454C37.8757 67.9376 37.4351 67.8948 36.9956 67.9184C36.6746 67.9388 36.6542 67.7686 36.6494 67.5158C36.6446 67.2629 36.7047 67.1263 37.01 67.1287C38.613 67.1415 40.2131 67.1415 41.8104 67.1287C42.129 67.1287 42.1591 67.2665 42.1603 67.523C42.1615 67.7794 42.1194 67.9376 41.8068 67.9184C41.4865 67.8975 41.165 67.9007 40.8451 67.928C40.0781 67.9951 39.8833 68.218 39.8833 68.9909C39.8833 74.0149 39.8801 79.039 39.8737 84.0631C39.8737 84.2824 40.0769 84.6107 39.7138 84.7281C39.3507 84.8456 39.1452 84.5807 38.9504 84.3099C35.5337 79.5695 32.1139 74.8314 28.6908 70.0957C28.5778 69.9399 28.4575 69.7913 28.3301 69.632C28.151 69.7794 28.2279 69.9495 28.2279 70.0933C28.2231 74.1811 28.2231 78.2681 28.2279 82.3543C28.2279 83.2986 28.4756 83.5406 29.4434 83.5526C29.703 83.5526 29.9627 83.5622 30.2224 83.5526C30.4821 83.543 30.7153 83.5286 30.7201 83.9349C30.7249 84.3411 30.5566 84.3782 30.22 84.3746C28.4864 84.3603 26.7408 84.3675 25 84.3675V83.5286C25.4388 83.5286 25.8764 83.5514 26.3152 83.5406C26.8129 83.5286 27.0822 83.2434 27.1363 82.7641C27.1602 82.5064 27.1702 82.2476 27.1664 81.9888C27.1664 77.9098 27.1664 73.8308 27.1664 69.7518C27.164 67.8717 27.0702 67.7866 25.1659 67.9208C25.1083 67.9328 25.0526 67.9521 25 67.9783V67.1419Z" fill="white"/>
<path d="M78.8877 67.8633C78.7734 67.2642 79.0079 67.1108 79.615 67.118C82.6133 67.1539 85.6116 67.1336 88.6099 67.1348C89.9263 67.1348 91.203 67.3373 92.3668 67.9855C93.7698 68.768 94.6317 69.9028 94.645 71.5804C94.6582 73.2581 93.8491 74.4648 92.4004 75.2472C90.7378 76.1448 88.914 76.3497 87.0627 76.3844C86.5625 76.394 86.0624 76.3952 85.5635 76.3844C85.2762 76.3772 85.1283 76.4383 85.1295 76.7763C85.1423 78.9084 85.1423 81.0402 85.1295 83.1716C85.1295 83.4999 85.2497 83.579 85.5527 83.5694C86.072 83.5527 86.5926 83.5778 87.1155 83.5598C87.4209 83.5491 87.4906 83.6941 87.4822 83.9577C87.4762 84.1973 87.4678 84.3759 87.1372 84.3747C84.4791 84.3651 81.8198 84.3747 79.1618 84.3615C78.6099 84.3615 78.9574 83.8822 78.8432 83.6425C79.3325 83.5311 79.8302 83.585 80.3231 83.5946C80.6898 83.603 80.804 83.4808 80.7932 83.1153C80.7715 82.0859 80.8004 81.0554 80.7775 80.0261C80.7679 79.5611 80.8977 79.083 80.6958 78.6276C80.6958 78.4 80.6958 78.1735 80.6958 77.9458C80.9002 77.397 80.7186 76.8266 80.7932 76.2682C80.8773 75.9267 80.6393 75.6187 80.6934 75.282C80.8332 74.7121 80.8373 74.1174 80.7054 73.5457C80.7054 73.3012 80.7026 73.0567 80.697 72.8123C80.7174 72.7787 80.7559 72.7452 80.7571 72.7116C80.7679 71.2054 80.7727 69.6991 80.7847 68.194C80.7847 67.8885 80.5816 67.9101 80.3784 67.9065C79.8795 67.8909 79.3842 67.8717 78.8877 67.8633ZM85.1391 71.7242C85.1391 72.8806 85.1463 74.037 85.1331 75.1933C85.1331 75.4893 85.2016 75.6295 85.531 75.6163C86.3497 75.5816 87.1708 75.6595 87.9859 75.5205C89.116 75.3275 89.7544 74.6996 89.8001 73.5576C89.8506 72.285 89.8506 71.0065 89.8001 69.7327C89.7544 68.6182 89.1869 68.103 88.0617 67.9748C87.2442 67.8813 86.4243 67.9328 85.6056 67.9029C85.2389 67.8885 85.1247 68.0059 85.1331 68.375C85.1511 69.4906 85.1355 70.6074 85.1367 71.7242H85.1391Z" fill="white"/>
<path d="M105.461 84.3651C104.242 84.3651 103.023 84.3651 101.804 84.3651C101.522 84.3651 101.362 84.3291 101.361 83.9864C101.359 83.6437 101.472 83.5071 101.81 83.555C101.83 83.558 101.85 83.558 101.87 83.555C102.334 83.5035 102.975 83.7779 103.217 83.4244C103.421 83.1224 103.009 82.5856 102.872 82.153C102.641 81.434 102.369 80.7258 102.142 80.0057C102.037 79.6749 101.888 79.5263 101.511 79.5371C100.053 79.5611 98.593 79.5479 97.1336 79.5455C96.8931 79.5455 96.6671 79.5275 96.5649 79.8379C96.2451 80.7965 95.9073 81.7552 95.5731 82.7138C95.3964 83.2207 95.6044 83.4855 96.1081 83.5263C96.5456 83.5668 96.9855 83.5768 97.4245 83.5562C97.7563 83.5371 97.832 83.6581 97.8381 83.9601C97.8381 84.2812 97.7262 84.3663 97.4185 84.3639C95.8957 84.3511 94.3765 84.3511 92.8609 84.3639C92.5531 84.3639 92.4413 84.2812 92.4413 83.9625C92.4413 83.6437 92.5387 83.5275 92.8513 83.5442C93.8708 83.597 94.4058 83.12 94.7676 82.141C96.5926 77.1921 98.4945 72.2718 100.361 67.3384C100.502 66.967 100.602 66.6902 101.125 66.6985C101.613 66.7057 101.712 66.9526 101.846 67.3073C103.806 72.46 105.788 77.6127 107.723 82.7713C107.963 83.4136 108.265 83.6521 108.925 83.5682C109.138 83.5406 109.499 83.3789 109.588 83.742C109.668 84.0703 109.677 84.3914 109.12 84.3711C107.902 84.3351 106.681 84.3651 105.461 84.3651ZM99.3649 72.4863C98.5966 74.539 97.8729 76.4719 97.148 78.4059C97.0169 78.7558 97.2394 78.7498 97.481 78.7486C98.3225 78.7486 99.1641 78.7486 99.9972 78.7486C100.515 78.7486 101.032 78.7235 101.549 78.7091C101.529 78.1615 101.256 77.6882 101.078 77.1897C100.535 75.6534 99.966 74.128 99.3649 72.4863Z" fill="white"/>
<path d="M57.5425 83.2997C57.5425 83.4388 57.5332 83.5777 57.5149 83.7156C57.4728 83.9312 57.6627 84.2716 57.373 84.3375C57.0833 84.4034 56.6433 84.5268 56.4173 84.2069C55.8366 83.386 55.2776 83.5861 54.4937 83.9804C51.16 85.652 47.0689 84.498 44.7787 81.2183C42.0016 77.2399 42.4055 72.9201 46.0506 69.1418C48.1329 66.9849 50.6286 66.1713 53.5752 67.1263C54.094 67.2792 54.5793 67.528 55.0059 67.8597C55.3281 68.1221 55.4868 68.0202 55.7164 67.753C55.946 67.4858 56.0987 67.1227 56.5844 67.1179C57.0508 67.1179 57.2408 67.2377 57.165 67.7075C57.1559 67.8462 57.1611 67.9856 57.1807 68.1233C57.1807 69.1123 57.1807 70.1009 57.1807 71.0891C57.0099 71.3599 57.4668 71.8931 56.82 71.9626C56.475 71.9902 56.3043 71.8152 56.1828 71.5013C56.0277 71.1046 55.8739 70.6996 55.5974 70.3605C54.9349 69.0316 53.9732 68.0574 52.4909 67.6763C50.0468 67.0472 48.8325 67.8057 48.3481 70.2503C48.3168 70.4072 48.2988 70.5654 48.2783 70.7296C47.9465 73.3491 48.0379 75.9817 48.0619 78.6108C48.0727 79.766 48.1184 80.9235 48.4226 82.0499C48.6943 83.0697 49.323 83.7144 50.3954 83.8845C52.7577 84.2608 54.6416 83.3237 55.7789 81.2051C56.1997 80.5928 56.3175 79.8391 56.7022 79.2087C57.5257 79.2579 57.5233 79.2579 57.5269 80.0811C57.5269 80.4346 57.5425 80.7881 57.5497 81.1416C57.5457 81.859 57.5433 82.5784 57.5425 83.2997Z" fill="white"/>
<path d="M80.6946 72.8086C80.6946 73.0531 80.6974 73.2975 80.703 73.542L79.4359 74.5821L80.691 75.2807C80.6369 75.6174 80.8749 75.9254 80.7908 76.2669C80.2906 76.3388 79.9155 76.6456 79.4587 76.92L80.6934 77.9373C80.6934 78.165 80.6934 78.3915 80.6934 78.6192L78.9875 79.1668L80.4962 81.0265C79.7749 81.1068 79.1509 81.1895 78.5246 81.2386C78.194 81.265 78.0882 81.3441 78.2757 81.6652C78.5366 82.1122 78.7494 82.5867 79.0151 83.0301C79.2147 83.3656 79.0836 83.4351 78.7747 83.4207C78.1471 83.3297 77.5208 83.247 76.8415 83.3105C77.0483 84.0295 77.2479 84.7161 77.4703 85.4806C76.8868 85.3727 76.3154 85.2078 75.7643 84.9881C75.9807 84.5543 76.3955 84.1493 75.9471 83.6233C75.9327 83.6053 75.9843 83.513 76.0216 83.4711C76.4604 82.9834 76.6167 82.3267 77.0327 81.815C77.338 81.4388 77.2731 81.0721 76.7453 80.8983C76.7814 80.576 77.112 80.3879 77.1288 80.0595L77.2154 79.9589C77.3356 79.8163 77.3525 79.6353 77.3777 79.4604L77.4594 79.3621C78.0173 77.9937 78.1808 76.5701 78.1062 75.1022C78.0161 73.3562 77.4558 71.7625 76.6155 70.2502C76.8968 69.9099 77.0964 69.5552 76.7021 69.0519C77.1998 69.2041 77.2034 69.6715 77.522 69.8212C77.9512 69.2604 77.5039 68.7584 77.457 68.2371L78.8925 68.0693C79.1822 68.0825 79.1497 68.2155 79.0379 68.412C78.8227 68.7919 78.6232 69.1814 78.4188 69.5684C78.081 70.2095 78.0822 70.2035 78.7795 70.267C79.3265 70.3173 79.8723 70.3868 80.5082 70.4528C80.0334 71.0363 79.6282 71.5468 79.2063 72.0453C79.0259 72.2586 79.0223 72.364 79.3265 72.4359C79.7773 72.545 80.2353 72.6816 80.6946 72.8086ZM77.6085 70.3485C79.2579 73.9738 79.2387 77.5914 77.5508 81.2015C79.5561 78.449 79.4996 73.0471 77.6085 70.3485ZM77.421 81.4927L77.3933 81.4555L77.3597 81.4867L77.4054 81.5334L77.421 81.4927Z" fill="#D4A23A"/>
<path d="M57.1831 71.0885C57.1831 70.1003 57.1831 69.1117 57.1831 68.1227C58.4875 68.2928 58.4731 68.2964 58.1449 67.0346C58.0595 66.7027 57.7145 66.2977 57.9778 66.0496C58.1593 65.8783 58.5957 66.179 58.9167 66.2713C60.1706 66.6308 60.167 66.6308 60.0383 65.3534C60.0047 65.0119 59.7642 64.5505 60.0383 64.36C60.2547 64.2126 60.6286 64.5865 60.9268 64.7375C62.129 65.3474 62.129 65.3522 62.2107 64.0005C62.2312 63.6902 62.1602 63.2516 62.4175 63.1318C62.6579 63.0215 62.8984 63.4098 63.128 63.5847C63.4754 63.8459 63.8133 64.118 64.1667 64.3936C64.4144 64.0341 64.4468 63.6446 64.5706 63.2935C64.6945 62.9424 64.7894 62.6177 64.9169 62.2234C65.3761 62.5566 65.6382 62.9976 65.9364 63.4002C65.6442 64.221 65.756 64.3864 66.6036 64.3888C66.8993 64.3888 67.1951 64.3888 67.4908 64.396C67.4908 64.4367 67.4908 64.4787 67.4908 64.5158C67.4908 65.3402 67.4908 65.3414 68.3323 65.3402C68.8661 65.3402 69.3927 65.375 69.8952 65.5799V65.9394C69.3061 65.8603 68.7194 65.7488 68.128 65.7093C66.8608 65.623 65.6286 65.8459 64.4264 66.2258C64.3161 66.2703 64.1966 66.2874 64.0783 66.2755C63.9599 66.2636 63.8462 66.2231 63.7471 66.1575C64.2533 65.7884 64.8411 65.6578 65.4458 65.5739C65.661 65.4169 66.0373 65.5595 66.1455 65.2204C66.1984 65.0562 66.2453 64.8094 66.0974 64.7207C65.9643 64.637 65.8095 64.5938 65.6521 64.5966C65.4947 64.5994 65.3415 64.6479 65.2114 64.7363C63.9942 64.8545 62.8367 65.3187 61.8765 66.0736C60.6563 66.9927 59.4721 67.9561 58.4298 69.0693C57.8804 69.6481 57.5991 70.4138 57.1831 71.0885Z" fill="#E5C17B"/>
<path d="M77.4511 68.2311C77.498 68.7524 77.9452 69.2545 77.516 69.8153C77.1974 69.6655 77.1938 69.1982 76.6961 69.046C77.0904 69.5529 76.8908 69.9075 76.6095 70.2443C75.815 69.1376 74.8794 68.1387 73.8264 67.2725C74.3302 66.8747 74.3338 66.7608 73.8264 66.4193C73.5499 66.2312 73.2818 66.0035 72.9741 65.8932C72.2527 65.6368 71.7154 65.0425 70.9568 64.8771L70.8245 64.7788L71.0012 64.3163C71.4533 64.393 71.6132 63.964 71.9185 63.7878C72.2792 63.5829 72.5773 63.0065 72.9019 63.1372C73.1796 63.2486 73.0859 63.8813 73.1207 64.2887C73.2121 65.3552 73.2097 65.3552 74.151 64.8615L75.3893 64.2168C75.3244 64.9118 75.2883 65.5014 75.2078 66.0862C75.1525 66.4852 75.2078 66.647 75.6574 66.4876C76.2188 66.2899 76.7995 66.1449 77.4871 65.9424L76.8524 68.1544C77.0555 68.3006 77.2635 68.176 77.4511 68.2311ZM76.4893 68.6901L76.434 68.6661L76.4833 68.6973C76.5013 68.7823 76.5001 68.8854 76.6312 68.8758C76.6401 68.8734 76.6482 68.8687 76.6548 68.8622C76.6613 68.8557 76.666 68.8476 76.6684 68.8387C76.6805 68.7104 76.5747 68.7104 76.4917 68.6925L76.4893 68.6901Z" fill="#D8A94B"/>
<path d="M57.5425 83.2998C57.5425 82.5808 57.5425 81.8595 57.5425 81.1357C58.0162 81.7947 58.3841 82.5353 59.0369 83.053C59.9986 83.8247 60.8618 84.703 61.8681 85.4268C62.914 86.1805 64.0429 86.6467 65.3244 86.7593L65.6851 86.9894C65.6995 87.3776 65.6286 87.7755 65.8209 88.1421C65.7067 88.6215 65.2619 88.8395 65.0046 89.2901C64.6596 88.7497 64.5827 88.1805 64.4228 87.6496C64.2773 87.1703 64.1571 86.9918 63.7135 87.4196C63.3203 87.7994 62.8563 88.1062 62.3405 88.5124C62.2384 87.682 62.1506 86.9606 62.052 86.1601L59.9698 87.2218C59.8929 86.5544 60.0419 85.9528 60.1008 85.3549C60.1489 84.8756 59.9614 84.8995 59.6416 84.9954C59.2208 85.1152 58.8 85.2351 58.3829 85.3741C57.9958 85.5023 57.7986 85.4939 57.9717 84.9954C58.1593 84.4526 58.2939 83.893 58.4526 83.3334C58.1328 83.2099 57.8359 83.3082 57.5425 83.2998Z" fill="#E5C17B"/>
<path d="M76.7394 80.8995C77.2623 81.0733 77.332 81.44 77.0267 81.8162C76.6107 82.3279 76.4544 82.9846 76.0156 83.4723C75.9784 83.5142 75.9267 83.6065 75.9411 83.6245C76.3895 84.1505 75.9747 84.5555 75.7584 84.9893C75.2053 84.8192 75.1356 85.0612 75.221 85.5453C75.3159 86.081 75.3316 86.631 75.3905 87.2685L73.2542 86.1529C73.158 86.951 73.069 87.6843 72.9656 88.5363C72.3994 88.0786 71.9113 87.6867 71.428 87.2889C71.2381 87.1331 71.0674 87.0025 70.9567 87.3548C70.5732 87.2685 70.7908 86.9438 70.7163 86.7377L70.8486 86.637C71.0081 86.6584 71.17 86.6213 71.3042 86.5327C72.052 86.0211 72.8983 85.6831 73.6581 85.199C74.2309 84.8156 74.7749 84.391 75.2859 83.9288C75.6153 83.6424 75.7067 83.2961 75.2282 83.0241L76.7394 80.8995Z" fill="#D8A94B"/>
<path d="M70.7103 86.7377C70.7908 86.9438 70.5732 87.2686 70.9507 87.3549C70.774 87.9804 70.5973 88.6071 70.3833 89.3632L68.8036 87.4843L67.6891 89.5298C67.284 89.1008 67.1157 88.5903 66.8596 88.1349C66.4893 87.4747 66.499 87.4711 66.0121 88.0151C65.9526 88.0658 65.8867 88.1085 65.8161 88.1421C65.6238 87.7755 65.6959 87.3776 65.6803 86.9894H66.4016C66.8692 87.2362 67.3694 87.0601 67.8526 87.0972C68.8324 87.1643 69.7617 86.8815 70.7103 86.7377Z" fill="#E0B564"/>
<path d="M71.0024 64.3127L70.8257 64.7753C69.7221 64.5847 68.6401 64.2636 67.4932 64.3966C67.1974 64.3966 66.9017 64.3894 66.606 64.3894C65.7584 64.3894 65.6442 64.2216 65.9387 63.4008C66.5086 64 66.5086 64 66.9137 63.2486C67.1217 62.8652 67.3285 62.4805 67.5377 62.0983C67.5557 62.0671 67.5978 62.0503 67.6639 62C68.0065 62.4314 68.2253 62.9323 68.485 63.408C68.8132 64.0072 68.8072 64.0072 69.228 63.4991C69.5814 63.0737 69.9409 62.6603 70.3713 62.145C70.6045 62.9275 70.8822 63.5949 71.0024 64.3127Z" fill="#E0B564"/>
<path d="M60.8919 88.4823V88.4966C60.8258 88.3974 60.7368 88.4297 60.6515 88.456C60.6515 88.4667 60.6515 88.4811 60.6635 88.4883C60.7405 88.5588 60.8174 88.5815 60.8919 88.4823Z" fill="#474747"/>
<path d="M65.3268 86.764C64.0453 86.6514 62.9164 86.1853 61.8705 85.4315C60.8642 84.7126 59.9986 83.8294 59.0393 83.0577C58.3901 82.5353 58.0186 81.7947 57.5449 81.1404C57.5377 80.7869 57.5233 80.4334 57.5221 80.0799C57.5221 79.2567 57.5221 79.2567 56.6974 79.2076C56.6649 79.0338 56.6337 78.8589 56.6024 78.6851C56.3692 77.4053 56.1372 76.1435 56.279 74.8122C56.3836 73.8404 56.6553 72.9189 56.8176 71.9675C57.4692 71.8979 57.0124 71.3683 57.1783 71.0939C57.5942 70.4192 57.8755 69.6559 58.425 69.07C59.4709 67.9567 60.6514 66.9933 61.8717 66.0742C62.8315 65.3232 63.9872 64.862 65.2018 64.7453C65.328 65.0113 65.4951 65.2654 65.4362 65.5841C64.8351 65.668 64.2436 65.7986 63.7375 66.1677C63.0835 66.3318 62.5125 66.6662 61.9594 67.0376C60.3008 68.0383 58.9838 69.5147 58.1809 71.2736C56.7214 74.4839 56.8404 77.657 58.4851 80.7893C59.225 82.2199 60.3433 83.4216 61.719 84.2644C62.8238 85.126 64.0837 85.6448 65.4458 85.9324C65.4434 86.214 65.4879 86.5028 65.3268 86.764Z" fill="#F2DAAA"/>
<path d="M56.8176 71.9627C56.6553 72.9142 56.3836 73.8356 56.279 74.8075C56.1371 76.1388 56.3691 77.4006 56.6024 78.6804C56.6336 78.8541 56.6649 79.0291 56.6974 79.2028C56.3126 79.8331 56.1948 80.5869 55.7741 81.1992C54.8447 81.0015 54.8447 81.0015 55.4422 80.2478C56.3042 79.1621 56.3054 79.1621 54.9746 78.7463C54.6909 78.6576 54.4047 78.5737 54.0128 78.4563L55.8426 76.8985L53.7988 75.7769C54.305 75.3647 54.8604 75.119 55.399 74.853C55.8077 74.6505 55.7825 74.4935 55.4531 74.2335C54.9842 73.874 54.537 73.481 54.0104 73.0424L55.6334 72.5379C56.3355 72.3198 56.3331 72.321 55.8823 71.771C55.5444 71.3612 55.2138 70.9453 54.8724 70.5224C55.1225 70.315 55.3749 70.4133 55.5937 70.363C55.8702 70.7021 56.0241 71.1071 56.1792 71.5038C56.3018 71.8153 56.4725 71.9903 56.8176 71.9627Z" fill="#E5C17B"/>
<path d="M76.7394 80.8996L75.2294 83.029C74.9685 83.1045 74.8387 83.3418 74.6463 83.5011C74.2857 83.7935 73.9923 84.171 73.5018 84.2632C73.5018 84.1434 73.5078 84.0236 73.5114 83.9038C74.1438 83.5047 74.6547 82.9667 75.1464 82.4203C77.1517 80.1902 77.98 77.5432 77.653 74.5966C77.3321 71.7206 75.9183 69.3923 73.6124 67.6177V67.245L73.83 67.2726C74.8837 68.1417 75.8192 69.1439 76.6131 70.2539C77.4547 71.7662 78.0137 73.3599 78.1039 75.1058C78.1808 76.5738 78.0149 77.9973 77.4571 79.3658C77.3946 79.3658 77.3549 79.391 77.3753 79.4641C77.3501 79.639 77.3381 79.8235 77.213 79.9625C77.1481 79.9625 77.1133 79.9937 77.1265 80.0632C77.106 80.3891 76.7754 80.5737 76.7394 80.8996Z" fill="#F2DAAA"/>
<path d="M77.6085 70.3486C79.4996 73.0471 79.5561 78.4491 77.5508 81.2016C79.2452 77.5875 79.2644 73.9698 77.6085 70.3486Z" fill="#C48E30"/>
<path d="M77.4154 81.4876L77.4 81.5281L77.3549 81.4817L77.3881 81.4508L77.4154 81.4876Z" fill="#C48E30"/>
<path d="M77.3716 79.4596C77.3514 79.3871 77.3906 79.3657 77.4523 79.3622L77.3716 79.4596Z" fill="#D8A94B"/>
<path d="M77.1228 80.0588C77.1097 79.9898 77.1442 79.9625 77.2083 79.9589L77.1228 80.0588Z" fill="#D8A94B"/>
<path d="M61.9642 67.0328C62.5172 66.6613 63.0883 66.327 63.7423 66.1629C63.8414 66.2285 63.9551 66.269 64.0734 66.2809C64.1918 66.2928 64.3113 66.2757 64.4215 66.2312C65.6237 65.8513 66.856 65.632 68.1231 65.7147C68.7146 65.7542 69.3013 65.8657 69.8904 65.9448C70.9339 66.1305 71.8656 66.5882 72.7757 67.1131C72.2948 67.0484 71.9834 67.3 71.7406 67.6667C71.4977 68.0334 71.3138 68.0897 70.899 67.8129C69.3662 66.7848 67.6531 66.5104 65.8594 66.8866C63.9911 67.2725 62.5689 68.3881 61.3884 69.8165C58.3672 73.4725 58.1268 77.349 60.6478 81.0913C62.9164 84.4561 67.058 85.6796 70.4169 83.9995C71.2657 83.5741 71.8596 83.4495 72.4463 84.2752C72.4883 84.3339 72.5809 84.3578 72.6494 84.395C71.5747 85.1691 70.3268 85.4603 69.0524 85.6832C66.4424 86.0115 64.0477 85.4231 61.8464 84.0055C61.1199 83.4526 60.4581 82.8199 59.8736 82.1194C57.7613 79.555 57.2191 76.6192 57.8587 73.4545C58.3191 71.1777 59.5346 69.318 61.3836 67.8776C61.6505 67.6691 62.0015 67.4678 61.9642 67.0328Z" fill="#E2B573"/>
<path d="M73.8264 67.2725L73.6088 67.2449C72.5268 66.3462 71.2405 65.8921 69.888 65.5901C69.3879 65.3828 68.8613 65.3504 68.3251 65.3504C67.4836 65.3504 67.4836 65.3504 67.4836 64.526C68.0847 64.6003 68.6918 64.7321 69.2965 64.7333C69.8579 64.7333 70.3785 65.1096 70.9531 64.8795C71.7117 65.0449 72.2527 65.6392 72.9704 65.8957C73.2782 66.0059 73.5463 66.2336 73.8228 66.4217C74.3337 66.7572 74.3301 66.8711 73.8264 67.2725Z" fill="#E0B564"/>
<path d="M69.888 65.5865C71.2405 65.8885 72.5244 66.3426 73.6088 67.2413V67.614C73.4525 67.5349 73.2963 67.4558 73.1412 67.3744C73.1352 67.1191 72.9356 67.1347 72.7673 67.1107C71.862 66.5859 70.9303 66.1281 69.882 65.9424C69.8892 65.8249 69.888 65.7063 69.888 65.5865Z" fill="#ECCF95"/>
<path d="M70.9579 64.8759C70.3833 65.106 69.8627 64.7297 69.3013 64.7297C68.7002 64.7297 68.0931 64.5967 67.4883 64.5224C67.4883 64.4817 67.4883 64.4397 67.4883 64.4026C68.6292 64.2696 69.7172 64.5907 70.8209 64.7813L70.9579 64.8759Z" fill="#ECCF95"/>
<path d="M65.441 65.5782C65.4999 65.2606 65.3328 65.0066 65.2065 64.7394C65.3366 64.651 65.4898 64.6024 65.6472 64.5997C65.8046 64.5969 65.9594 64.64 66.0926 64.7238C66.2404 64.8125 66.1936 65.0593 66.1407 65.2235C66.0325 65.5638 65.6562 65.4212 65.441 65.5782Z" fill="#ECCF95"/>
<path d="M76.4917 68.6925C76.5783 68.7104 76.6805 68.7104 76.6709 68.8407C76.6685 68.8495 76.6637 68.8576 76.6572 68.8641C76.6507 68.8706 76.6425 68.8753 76.6336 68.8777C76.5025 68.8873 76.5038 68.7845 76.4857 68.6997L76.4917 68.6925Z" fill="#D4A23A"/>
<path d="M76.4848 68.6993L76.4364 68.6685L76.4907 68.6922L76.4848 68.6993Z" fill="#D4A23A"/>
<path d="M65.3268 86.764C65.4879 86.5028 65.4471 86.214 65.4471 85.9252C66.4088 86.1541 66.4088 86.1541 66.4088 86.9941H65.6875L65.3268 86.764Z" fill="#ECCF95"/>
<path d="M73.5018 84.2632C73.9923 84.1709 74.2904 83.7934 74.6463 83.5011C74.8386 83.3417 74.9685 83.1044 75.2294 83.0289C75.7102 83.3009 75.6153 83.6473 75.2859 83.9336C74.7728 84.3944 74.2268 84.8174 73.6521 85.1991C72.8923 85.6784 72.0459 86.0211 71.2982 86.5328C71.1639 86.6213 71.0021 86.6584 70.8425 86.637C70.7716 86.5435 70.685 86.5723 70.5829 86.5831C69.6716 86.6825 68.7796 86.915 67.849 86.8815C67.5269 86.8239 67.6026 86.5771 67.6242 86.3758C67.6507 86.1253 67.8647 86.1853 68.0342 86.1613C68.3708 86.1122 68.7363 86.2871 69.0476 86.0415C70.4406 85.8778 71.7851 85.4312 72.9981 84.7293C73.1483 84.6442 73.3383 84.6011 73.3816 84.3926L73.5018 84.2632Z" fill="#E0B564"/>
<path d="M67.849 86.8815C68.7747 86.915 69.6715 86.6826 70.5828 86.5831C70.685 86.5723 70.7716 86.5436 70.8425 86.637L70.7103 86.7377C69.7617 86.8815 68.8324 87.1631 67.8574 87.1068C67.855 87.0313 67.8526 86.957 67.849 86.8815Z" fill="#ECCF95"/>
<path d="M67.849 86.8815C67.849 86.9569 67.855 87.0312 67.8574 87.1067C67.3765 87.0696 66.874 87.2457 66.4064 86.9989C66.4064 86.1601 66.4064 86.1601 65.4446 85.93C64.0813 85.6424 62.8214 85.1236 61.7178 84.262C61.7621 84.2369 61.7982 84.1996 61.8217 84.1545C61.8452 84.1094 61.855 84.0585 61.85 84.0079C64.0512 85.4267 66.446 86.0151 69.056 85.6856C69.056 85.8054 69.056 85.9252 69.056 86.0355C68.7447 86.2859 68.3792 86.1109 68.0426 86.1553C67.8755 86.1793 67.6591 86.1193 67.6326 86.3698C67.6026 86.5771 67.5268 86.8239 67.849 86.8815Z" fill="#E5C17B"/>
<path d="M61.8464 84.0079C61.8514 84.0585 61.8415 84.1094 61.8181 84.1545C61.7946 84.1996 61.7585 84.2369 61.7142 84.262C60.3385 83.4192 59.2202 82.2175 58.4802 80.7869C56.8356 77.6546 56.7166 74.4815 58.1761 71.2712C58.9811 69.51 60.3016 68.0326 61.9642 67.0328C62.0015 67.469 61.6504 67.6703 61.3835 67.8788C59.5346 69.3168 58.3191 71.1849 57.8587 73.4557C57.2155 76.6204 57.7613 79.5563 59.8736 82.123C60.4582 82.8231 61.1199 83.4554 61.8464 84.0079V84.0079Z" fill="#E0B564"/>
<path d="M73.1448 67.3755C73.2999 67.4558 73.4561 67.5349 73.6124 67.6152C75.9183 69.3899 77.3321 71.7134 77.653 74.5941C77.98 77.5407 77.1517 80.1878 75.1465 82.4178C74.6547 82.9642 74.1438 83.5023 73.5115 83.9001C73.503 82.546 73.5042 81.1907 73.4778 79.8367C73.4778 79.6282 73.675 79.2699 73.2301 79.2375C72.8755 79.2088 72.5268 79.1572 72.4078 79.6713C72.2916 80.0943 72.1266 80.5024 71.9161 80.8876C71.178 82.3567 70.1333 83.4771 68.443 83.839C65.8306 84.3998 64.4504 83.5346 64.186 80.9187C63.8614 77.7049 63.9227 74.4719 64.186 71.2497C64.2533 70.436 64.3819 69.6284 64.7149 68.8698C64.9974 68.2263 65.4507 67.7626 66.1576 67.6416C68.1063 67.306 69.7642 67.795 70.9856 69.427C71.4861 70.1 71.8907 70.8388 72.1878 71.6223C72.3249 71.9818 72.5858 71.9495 72.8647 71.9375C73.2386 71.9219 73.1051 71.6295 73.1051 71.4438C73.1328 70.0849 73.1364 68.7308 73.1448 67.3755Z" fill="#E2B573"/>
<path d="M73.1448 67.3756C73.1364 68.7309 73.1328 70.0849 73.1135 71.439C73.1135 71.6248 73.2434 71.9183 72.8731 71.9327C72.5942 71.9447 72.3333 71.9759 72.1963 71.6176C71.8991 70.834 71.4945 70.0952 70.9941 69.4223C69.7714 67.7902 68.1148 67.3013 66.166 67.6368C65.4603 67.7566 65.0071 68.2216 64.7233 68.8651C64.3903 69.6236 64.2617 70.4312 64.1944 71.2449C63.9275 74.4671 63.8662 77.7001 64.1944 80.914C64.4589 83.5299 65.839 84.389 68.4514 83.8342C70.1417 83.4747 71.1864 82.3519 71.9246 80.8828C72.135 80.4977 72.3 80.0895 72.4163 79.6665C72.5365 79.1525 72.8839 79.204 73.2386 79.2328C73.6834 79.2687 73.479 79.627 73.4862 79.8319C73.5127 81.186 73.5115 82.5413 73.5199 83.8953C73.5199 84.0152 73.5199 84.135 73.5103 84.2548L73.3901 84.3807L72.6591 84.3902C72.5906 84.3495 72.498 84.3255 72.4559 84.2704C71.8741 83.4448 71.2754 83.5694 70.4266 83.9948C67.0676 85.6724 62.926 84.4514 60.6575 81.0865C58.1328 77.3442 58.3733 73.4677 61.398 69.8117C62.5786 68.3834 64.0008 67.2713 65.8654 66.8807C67.6688 66.5044 69.3723 66.7788 70.9051 67.807C71.3187 68.0838 71.5122 68.0107 71.7466 67.6608C71.9811 67.3109 72.3021 67.0425 72.7817 67.1072C72.9392 67.1371 73.1388 67.1203 73.1448 67.3756Z" fill="#3E1761"/>
<path d="M72.6494 84.3986L73.3804 84.389C73.3383 84.5975 73.1483 84.6407 72.9981 84.7258C71.785 85.4276 70.4405 85.8742 69.0476 86.0379C69.0476 85.9181 69.0476 85.7982 69.0476 85.6868C70.3231 85.4639 71.5746 85.1727 72.6494 84.3986Z" fill="#ECCF95"/>
</g>
<defs>
<clipPath id="clip0">
<rect width="84.6269" height="27.5297" fill="white" transform="translate(25 62)"/>
</clipPath>
</defs>
</svg>
