<svg width="30" height="30" viewBox="0 0 30 30" fill="none" xmlns="http://www.w3.org/2000/svg">
<path d="M14.9998 11.4279C14.2934 11.4282 13.6029 11.6379 13.0157 12.0306C12.4285 12.4232 11.9709 12.9811 11.7008 13.6338C11.4307 14.2865 11.3601 15.0046 11.4981 15.6974C11.6361 16.3902 11.9763 17.0265 12.4759 17.5259C12.9755 18.0253 13.6119 18.3653 14.3048 18.503C14.9976 18.6408 15.7157 18.5699 16.3683 18.2996C17.0209 18.0292 17.5786 17.5714 17.9711 16.984C18.3635 16.3967 18.5729 15.7061 18.5729 14.9998C18.5722 14.0524 18.1955 13.1441 17.5255 12.4744C16.8555 11.8047 15.9471 11.4283 14.9998 11.4279ZM23.3507 8.68245C23.1689 8.22164 22.8943 7.8031 22.544 7.45281C22.1937 7.10252 21.7752 6.82794 21.3144 6.6461C19.9082 6.09098 16.56 6.21553 14.9998 6.21553C13.4395 6.21553 10.0947 6.08629 8.68446 6.6461C8.22365 6.82794 7.80511 7.10252 7.45482 7.45281C7.10453 7.8031 6.82994 8.22164 6.64811 8.68245C6.09365 10.0887 6.21754 13.4402 6.21754 14.9991C6.21754 16.558 6.09365 19.9055 6.65079 21.3164C6.83262 21.7772 7.1072 22.1958 7.4575 22.546C7.80779 22.8963 8.22633 23.1709 8.68714 23.3528C10.0934 23.9079 13.4415 23.7833 15.0024 23.7833C16.5634 23.7833 19.9068 23.9126 21.3171 23.3528C21.7779 23.1709 22.1964 22.8963 22.5467 22.546C22.897 22.1958 23.1716 21.7772 23.3534 21.3164C23.9126 19.9102 23.784 16.5587 23.784 14.9998C23.784 13.4409 23.9126 10.094 23.3534 8.68312L23.3507 8.68245ZM14.9998 20.4907C13.9137 20.4907 12.8521 20.1687 11.9491 19.5654C11.0461 18.962 10.3424 18.1044 9.92676 17.1011C9.51116 16.0977 9.40242 14.9937 9.61429 13.9285C9.82616 12.8634 10.3491 11.885 11.1171 11.1171C11.885 10.3491 12.8634 9.82616 13.9285 9.61429C14.9937 9.40242 16.0977 9.51116 17.1011 9.92676C18.1044 10.3424 18.962 11.0461 19.5654 11.9491C20.1687 12.8521 20.4907 13.9137 20.4907 14.9998C20.4916 15.7211 20.3502 16.4355 20.0746 17.1021C19.7989 17.7687 19.3945 18.3744 18.8844 18.8844C18.3744 19.3945 17.7687 19.7989 17.1021 20.0746C16.4355 20.3502 15.7211 20.4916 14.9998 20.4907ZM20.7171 10.5601C20.4636 10.5602 20.2157 10.4852 20.0048 10.3444C19.794 10.2037 19.6296 10.0036 19.5325 9.76937C19.4354 9.53518 19.4099 9.27746 19.4593 9.02879C19.5087 8.78013 19.6307 8.55169 19.8099 8.37238C19.9891 8.19307 20.2175 8.07093 20.4661 8.02143C20.7148 7.97192 20.9725 7.99726 21.2067 8.09425C21.441 8.19123 21.6412 8.35551 21.782 8.5663C21.9229 8.77708 21.9981 9.02491 21.9981 9.27843C21.9988 9.44678 21.9663 9.61362 21.9023 9.76937C21.8384 9.92512 21.7444 10.0667 21.6256 10.186C21.5069 10.3054 21.3657 10.4001 21.2102 10.4647C21.0548 10.5294 20.8881 10.5627 20.7198 10.5628L20.7171 10.5601ZM26.7853 0H3.21424C2.36177 0 1.54421 0.338642 0.941428 0.941428C0.338642 1.54421 0 2.36177 0 3.21424L0 26.7853C0 27.6378 0.338642 28.4553 0.941428 29.0581C1.54421 29.6609 2.36177 29.9995 3.21424 29.9995H26.7853C27.6378 29.9995 28.4553 29.6609 29.0581 29.0581C29.6609 28.4553 29.9995 27.6378 29.9995 26.7853V3.21424C29.9995 2.36177 29.6609 1.54421 29.0581 0.941428C28.4553 0.338642 27.6378 0 26.7853 0ZM25.6389 19.4193C25.5525 21.1356 25.1608 22.6563 23.9079 23.9059C22.655 25.1554 21.1356 25.5552 19.4213 25.6369C17.6528 25.7366 12.3507 25.7366 10.5822 25.6369C8.86593 25.5505 7.35055 25.1581 6.09566 23.9059C4.84077 22.6537 4.44636 21.1323 4.36466 19.4193C4.26489 17.6502 4.26489 12.3474 4.36466 10.5802C4.45105 8.86392 4.83809 7.34319 6.09566 6.09365C7.35323 4.84412 8.87263 4.44904 10.5822 4.36734C12.3507 4.26757 17.6528 4.26757 19.4213 4.36734C21.1376 4.45372 22.6577 4.84613 23.9079 6.09834C25.1581 7.35055 25.5572 8.87196 25.6389 10.5882C25.7387 12.3507 25.7387 17.6488 25.6389 19.4193Z" fill="white"/>
</svg>
