<svg width="30" height="30" viewBox="0 0 30 30" fill="none" xmlns="http://www.w3.org/2000/svg">
<path d="M26.7853 0H3.21424C1.43971 0 0 1.43971 0 3.21424V26.7853C0 28.5598 1.43971 29.9995 3.21424 29.9995H26.7853C28.5598 29.9995 29.9995 28.5598 29.9995 26.7853V3.21424C29.9995 1.43971 28.5598 0 26.7853 0ZM23.5108 10.6338C23.5242 10.8213 23.5242 11.0155 23.5242 11.2029C23.5242 17.0087 19.1046 23.6983 11.0288 23.6983C8.53781 23.6983 6.22758 22.9751 4.28565 21.7296C4.64055 21.7697 4.98206 21.7831 5.34367 21.7831C7.39944 21.7831 9.2878 21.0867 10.7945 19.9082C8.86593 19.868 7.24542 18.6024 6.68963 16.8613C7.36596 16.9618 7.97532 16.9618 8.67174 16.781C6.66284 16.3725 5.15617 14.6047 5.15617 12.4686V12.415C5.73875 12.7431 6.42177 12.944 7.13828 12.9708C6.5359 12.5701 6.04208 12.0265 5.7009 11.3885C5.35971 10.7506 5.18177 10.0381 5.18295 9.31459C5.18295 8.49763 5.39724 7.74765 5.77893 7.0981C7.94184 9.76324 11.1896 11.5043 14.8324 11.6918C14.2096 8.71192 16.4395 6.29454 19.118 6.29454C20.3836 6.29454 21.522 6.82355 22.3255 7.68068C23.3166 7.49319 24.2675 7.12489 25.1112 6.62266C24.7831 7.6405 24.0934 8.49763 23.1827 9.04004C24.0666 8.94629 24.9237 8.69852 25.7139 8.35701C25.1179 9.23423 24.3679 10.011 23.5108 10.6338Z" fill="#3E1761"/>
</svg>
