<svg width="30" height="24" viewBox="0 0 30 24" fill="none" xmlns="http://www.w3.org/2000/svg">
<path d="M10.9399 24C9.67183 24 8.36662 23.8973 7.05358 23.6915C4.74094 23.3286 2.39989 22.1189 1.73744 21.7567L0 20.8068L1.88107 20.1882C3.93733 19.5121 5.18817 19.0926 6.73657 18.4358C5.18615 17.6849 3.99124 16.3343 3.41605 14.5884L2.97844 13.2599L3.3373 13.3147C2.99701 12.9717 2.72832 12.6236 2.52003 12.307C1.77928 11.1819 1.38709 9.80715 1.47054 8.62902L1.55287 7.46945L2.24709 7.73837C1.95423 7.18532 1.74259 6.59469 1.6182 5.97565C1.31505 4.46595 1.56876 2.86207 2.33277 1.45954L2.9375 0.349424L3.74626 1.32084C6.30411 4.39347 9.54386 6.21615 13.389 6.74973C13.232 5.66713 13.3496 4.62234 13.7391 3.68583C14.1926 2.59539 14.9994 1.67074 16.0715 1.01165C17.2621 0.279846 18.706 -0.0747571 20.1372 0.0131666C21.6556 0.10646 23.0342 0.675391 24.1291 1.65955C24.6638 1.52062 25.0578 1.37229 25.5903 1.17184C25.9106 1.05125 26.274 0.914328 26.7286 0.757721L28.4038 0.180512L27.3114 3.30057C27.3834 3.29453 27.4577 3.28939 27.5353 3.28603L29.3242 3.20504L28.2669 4.65008C28.2063 4.73286 28.1908 4.75635 28.1694 4.78879C28.0841 4.91721 27.9781 5.07694 26.5268 7.01484C26.1634 7.5001 25.982 8.13212 26.0158 8.7948C26.1444 11.313 25.8355 13.5914 25.097 15.5665C24.3985 17.435 23.3161 19.0382 21.8802 20.3316C20.1034 21.9317 17.8378 23.0272 15.1459 23.5875C13.8255 23.8622 12.4075 24 10.9399 24Z" fill="white"/>
</svg>
