<svg width="25" height="24" viewBox="0 0 25 24" fill="none" xmlns="http://www.w3.org/2000/svg">
<path d="M17.4229 0H8.42285C4.28135 0 0.922852 3.3585 0.922852 7.5V16.5C0.922852 20.6415 4.28135 24 8.42285 24H17.4229C21.5644 24 24.9229 20.6415 24.9229 16.5V7.5C24.9229 3.3585 21.5644 0 17.4229 0ZM22.6729 16.5C22.6729 19.395 20.3179 21.75 17.4229 21.75H8.42285C5.52785 21.75 3.17285 19.395 3.17285 16.5V7.5C3.17285 4.605 5.52785 2.25 8.42285 2.25H17.4229C20.3179 2.25 22.6729 4.605 22.6729 7.5V16.5Z" fill="#E18D43"/>
<path d="M12.9229 6C9.60935 6 6.92285 8.6865 6.92285 12C6.92285 15.3135 9.60935 18 12.9229 18C16.2364 18 18.9229 15.3135 18.9229 12C18.9229 8.6865 16.2364 6 12.9229 6ZM12.9229 15.75C10.8559 15.75 9.17285 14.067 9.17285 12C9.17285 9.9315 10.8559 8.25 12.9229 8.25C14.9899 8.25 16.6729 9.9315 16.6729 12C16.6729 14.067 14.9899 15.75 12.9229 15.75Z" fill="#E18D43"/>
<path d="M19.3727 6.34961C19.8143 6.34961 20.1722 5.99163 20.1722 5.55005C20.1722 5.10846 19.8143 4.75049 19.3727 4.75049C18.9312 4.75049 18.5732 5.10846 18.5732 5.55005C18.5732 5.99163 18.9312 6.34961 19.3727 6.34961Z" fill="#E18D43"/>
</svg>
