<svg width="27" height="24" viewBox="0 0 27 24" fill="none" xmlns="http://www.w3.org/2000/svg">
<path d="M26.0391 14.7144V24H20.6558V15.3363C20.6558 13.1599 19.8772 11.6746 17.9287 11.6746C16.4412 11.6746 15.556 12.6756 15.1666 13.6438C15.0246 13.99 14.988 14.4718 14.988 14.9564V24H9.60298C9.60298 24 9.67551 9.3265 9.60298 7.80621H14.9875V10.1016C14.9766 10.1188 14.9624 10.1373 14.9521 10.1539H14.9875V10.1016C15.7029 8.99978 16.9805 7.42577 19.8401 7.42577C23.3831 7.42572 26.0391 9.74027 26.0391 14.7144ZM3.97002 0C2.12781 0 0.922852 1.20834 0.922852 2.79736C0.922852 4.35175 2.09295 5.59676 3.89855 5.59676H3.93452C5.8124 5.59676 6.98028 4.35198 6.98028 2.79736C6.9449 1.20834 5.8124 0 3.97002 0ZM1.24267 24H6.62566V7.80621H1.24267V24Z" fill="#E18D43"/>
</svg>
