<svg width="30" height="30" viewBox="0 0 30 30" fill="none" xmlns="http://www.w3.org/2000/svg">
<g clip-path="url(#clip0)">
<path d="M15 29.999C23.2843 29.999 30 23.2833 30 14.999C30 6.71475 23.2843 -0.000976562 15 -0.000976562C6.71573 -0.000976562 0 6.71475 0 14.999C0 23.2833 6.71573 29.999 15 29.999Z" fill="#007AB9"/>
<path d="M23.9629 16.2067V22.3909H20.3775V16.6212C20.3775 15.1725 19.8599 14.1831 18.5617 14.1831C17.571 14.1831 16.9825 14.8492 16.7226 15.4941C16.6282 15.7246 16.6039 16.0447 16.6039 16.368V22.3906H13.0182C13.0182 22.3906 13.0663 12.6186 13.0182 11.6071H16.6041V13.1352C16.5969 13.1473 16.5867 13.159 16.5803 13.1705H16.6041V13.1352C17.0806 12.4021 17.9304 11.3539 19.8355 11.3539C22.1944 11.3539 23.9629 12.8951 23.9629 16.2067ZM9.26723 6.40906C8.04072 6.40906 7.23828 7.21417 7.23828 8.27196C7.23828 9.30729 8.01745 10.1357 9.22017 10.1357H9.24343C10.494 10.1357 11.2716 9.30729 11.2716 8.27196C11.2478 7.21417 10.494 6.40906 9.26723 6.40906ZM7.45139 22.3909H11.0357V11.6071H7.45139V22.3909Z" fill="#F1F2F2"/>
</g>
<defs>
<clipPath id="clip0">
<rect width="30" height="30" fill="white"/>
</clipPath>
</defs>
</svg>
