<svg width="289" height="40" viewBox="0 0 289 40" fill="none" xmlns="http://www.w3.org/2000/svg">
<g clip-path="url(#clip0)">
<path d="M94.2951 28.4087H84.1118V7.34973H94.1751C98.1409 7.34973 100.244 9.75385 100.244 12.7361C100.244 14.9628 99.341 16.5255 97.4781 17.5215C99.7582 18.1511 101.535 19.565 101.535 22.5129C101.535 26.1248 98.4381 28.4087 94.2951 28.4087ZM93.0036 15.7413C94.3579 15.7413 95.1065 14.8712 95.1065 13.486C95.1065 12.1923 94.2951 11.4081 92.9464 11.4081H89.1634V15.7413H93.0036ZM94.0265 19.7767H89.1634V24.3503H94.1179C95.5923 24.3503 96.4323 23.3887 96.4323 22.032C96.4266 20.6182 95.5294 19.7767 94.0265 19.7767Z" fill="white"/>
<path d="M105.764 5.99884C107.444 5.99884 108.559 7.02345 108.559 8.61475C108.559 10.2118 107.45 11.2307 105.764 11.2307C104.078 11.2307 102.97 10.2061 102.97 8.61475C102.975 7.01773 104.084 5.99884 105.764 5.99884ZM103.244 28.4087V12.6445H108.29V28.4087H103.244Z" fill="white"/>
<path d="M125.582 27.9279C125.582 31.3566 122.371 34.0069 117.713 34.0069C113.867 34.0069 110.627 32.1122 110.084 28.9525H114.982C115.37 29.8226 116.422 30.2461 117.713 30.2461C119.485 30.2461 120.536 29.2215 120.536 27.7791V25.913C119.788 26.8174 118.165 27.6302 116.422 27.6302C112.067 27.6302 109.936 24.4419 109.936 21.0418V18.8781C109.936 15.3864 112.096 12.2896 116.45 12.2896C118.61 12.2896 120.296 13.4345 120.776 14.3045V12.6503H125.582V27.9279ZM117.713 16.3766C115.822 16.3766 114.919 17.5787 114.919 19.2044V20.7098C114.919 22.3641 115.822 23.5375 117.685 23.5375C119.399 23.5375 120.536 22.5129 120.536 20.8014V19.1185C120.536 17.3097 119.216 16.3766 117.713 16.3766Z" fill="white"/>
<path d="M147.2 28.4087L139.331 16.1019V28.4087H134.285V7.34973H139.182L147.08 19.6565V7.34973H152.126V28.4087H147.2Z" fill="white"/>
<path d="M159.086 22.1236V22.4842C159.086 24.0469 160.018 25.2204 161.789 25.2204C163.201 25.2204 164.012 24.4991 164.344 23.7149H168.789C168.247 26.6342 165.366 28.7693 161.789 28.7693C157.252 28.7693 154.223 26.1534 154.223 21.6371V19.6794C154.223 15.289 156.898 12.2782 161.669 12.2782C166.446 12.2782 168.875 15.4665 168.875 19.2272V22.1179H159.086V22.1236ZM159.086 19.1757H164.252V18.6033C164.252 17.0406 163.469 15.8672 161.698 15.8672C159.863 15.8672 159.086 17.0406 159.086 18.8437V19.1757Z" fill="white"/>
<path d="M179.956 17.4871H179.293C176.95 17.4871 175.687 18.4488 175.687 21.1849V28.403H170.641V12.6445H175.418V15.415C175.898 13.0681 177.458 12.5243 179.716 12.5243H179.956V17.4871Z" fill="white"/>
<path d="M196.556 28.4087H191.75V26.7544C191.27 27.6245 189.59 28.7693 187.424 28.7693C182.979 28.7693 180.756 25.3978 180.756 21.8202V19.2329C180.756 15.6554 182.979 12.2839 187.424 12.2839C189.316 12.2839 190.819 13.154 191.51 13.9668V6.44531H196.556V28.4087ZM191.51 19.4161C191.51 17.4299 190.19 16.4396 188.687 16.4396C186.704 16.4396 185.802 17.6417 185.802 19.5077V21.5512C185.802 23.3543 186.704 24.6193 188.687 24.6193C190.19 24.6193 191.51 23.6291 191.51 21.6428V19.4161Z" fill="white"/>
<path d="M213.825 22.1523H210.431V28.4087H205.265V7.34973H215.146C220.249 7.34973 223.014 10.4808 223.014 14.7796C223.014 17.7905 221.54 20.1374 219.111 21.3051L223.409 28.403H217.403L213.825 22.1523ZM214.545 11.4997H210.431V18.0595H214.545C216.706 18.0595 217.848 16.7659 217.848 14.8426C217.848 12.8277 216.706 11.4997 214.545 11.4997Z" fill="white"/>
<path d="M234.329 28.4087V27.0864C233.426 28.1397 231.717 28.7693 229.672 28.7693C226.066 28.7693 223.906 26.6915 223.906 23.8065C223.906 20.5552 226.34 18.901 230.003 18.901C231.895 18.901 233.335 19.4448 234.118 20.0744V18.237C234.118 17.0635 233.335 16.1935 231.923 16.1935C230.872 16.1935 230.06 16.5541 229.643 17.3383H225.049C225.712 14.1786 228.38 12.2839 232.078 12.2839C236.552 12.2839 239.163 14.7224 239.163 18.6033V28.4087H234.329ZM234.118 23.7149C234.118 22.6617 232.975 21.8775 231.415 21.8775C229.7 21.8775 228.62 22.4785 228.62 23.7149C228.62 24.917 229.763 25.5524 231.352 25.5524C232.883 25.5524 234.118 24.7682 234.118 23.7149Z" fill="white"/>
<path d="M241.341 28.4087V12.6445H246.175V14.482C246.987 13.0395 248.547 12.2839 250.558 12.2839C254.164 12.2839 256.084 14.6022 256.084 18.2427V28.4087H251.038V19.0212C251.038 17.5787 250.29 16.6743 248.758 16.6743C247.467 16.6743 246.387 17.2753 246.387 19.0784V28.403H241.341V28.4087Z" fill="white"/>
<path d="M257.639 21.5512V19.5077C257.639 15.3234 260.37 12.2896 265.325 12.2896C269.651 12.2896 272.622 14.9685 272.714 18.7293H268.148C268.056 17.4356 267.188 16.2908 265.416 16.2908C263.553 16.2908 262.685 17.4642 262.685 19.2101V21.8603C262.685 23.6062 263.553 24.7796 265.416 24.7796C267.188 24.7796 268.062 23.6348 268.148 22.3412H272.714C272.622 26.1019 269.651 28.7808 265.325 28.7808C260.37 28.7693 257.639 25.7298 257.639 21.5512Z" fill="white"/>
<path d="M274.257 28.4087V6.44531H279.303V14.3274C280.023 13.1253 281.645 12.2839 283.48 12.2839C287.086 12.2839 289.006 14.6022 289.006 18.2427V28.4087H283.96V19.0212C283.96 17.5787 283.211 16.6743 281.68 16.6743C280.388 16.6743 279.308 17.2753 279.308 19.0784V28.403H274.257V28.4087Z" fill="white"/>
<path d="M61.2016 11.9527C58.6472 11.4375 56.0871 11.4318 53.3898 11.9355L53.087 11.9928L51.4698 6.29731C51.2983 5.66193 49.6354 0.126731 44.9495 0.0065249C42.3551 -0.0621643 40.5608 0.979621 39.2521 1.74093C38.2635 2.31334 37.6692 2.61671 36.9149 2.73692C36.5492 2.79416 36.0863 2.71975 35.5148 2.46789C34.4405 1.99851 32.2461 1.3059 29.726 1.85541C27.366 2.36485 24.6516 4.1107 21.24 15.8222L21.1486 16.137L20.8286 16.0569C18.6056 15.4902 16.4627 15.2155 14.4454 15.2155C10.8853 15.2155 7.71375 16.0855 5.19365 17.7913C2.04495 19.9321 0.204879 23.2063 0.0105856 27.0128C-0.149421 30.1267 1.06777 33.2864 3.35357 35.6848C6.01082 38.4725 9.83383 40.0122 14.1311 40.0122C20.5428 39.9894 27.0002 34.7861 33.8405 29.2738C42.3608 22.4049 51.1783 15.3013 60.1787 17.1044C64.0874 17.8886 68.0476 21.0311 67.4932 26.0741C67.219 28.5755 64.7903 30.848 61.4473 31.7352C59.5558 32.2332 52.9841 33.3208 47.9211 26.2859L46.3324 24.0821C44.9952 24.9235 43.578 25.8966 42.018 27.0586L43.6752 29.354C49.2468 37.093 57.2014 38.2778 62.7845 36.8068C68.2933 35.3528 72.1849 31.3631 72.6992 26.6465C73.5621 18.6843 67.5732 13.2292 61.2016 11.9527ZM47.801 13.6413C41.6351 16.2458 36.0006 20.785 30.5546 25.1754C24.4516 30.0981 18.6856 34.7404 14.1769 34.7575C14.1711 34.7575 14.1597 34.7575 14.154 34.7575C11.291 34.7575 8.7995 33.8016 7.1423 32.0557C5.85082 30.6991 5.15936 28.9533 5.24508 27.2704C5.35365 25.1124 6.35369 23.3322 8.13662 22.1244C10.8224 20.2985 14.8455 19.9378 19.4685 21.1113L19.7999 21.1971L19.7142 21.5234C19.1885 23.6299 18.657 25.9252 18.1256 28.3408L17.6799 30.3557C19.3485 29.4742 21.36 28.1863 23.983 26.1657C24.1087 25.6276 24.8058 22.8915 24.9373 22.3877C28.2003 9.8348 29.7603 7.52227 30.8518 7.02427C31.909 6.53772 33.1948 7.13303 33.8519 7.37916C34.7377 7.71116 35.7777 8.16336 37.5664 7.94012C39.4179 7.70544 40.7779 6.91551 41.8751 6.28014L42.3265 6.01683C43.2923 5.43869 44.058 4.98077 44.8866 5.26697C45.6181 5.51311 46.201 6.90979 46.4238 7.69399L48.0753 13.5326L47.801 13.6413Z" fill="#BA6624"/>
</g>
<defs>
<clipPath id="clip0">
<rect width="289" height="40" fill="white"/>
</clipPath>
</defs>
</svg>
