<svg width="30" height="30" viewBox="0 0 30 30" fill="none" xmlns="http://www.w3.org/2000/svg">
<g clip-path="url(#clip0)">
<path d="M15 30C23.2843 30 30 23.2843 30 15C30 6.71573 23.2843 0 15 0C6.71573 0 0 6.71573 0 15C0 23.2843 6.71573 30 15 30Z" fill="#E18D43"/>
<path d="M21.8636 8.16431H8.13645C6.95842 8.16431 6 9.08471 6 10.216V19.784C6 20.9153 6.95842 21.8357 8.13645 21.8357H21.8636C23.0416 21.8357 24 20.9153 24 19.784V10.216C24 9.08471 23.0416 8.16431 21.8636 8.16431ZM21.8636 20.0244H8.13645C7.96328 20.0244 7.81141 19.9121 7.81141 19.784V11.4812L14.0198 16.7227C14.1471 16.8302 14.309 16.8894 14.4756 16.8894L15.5242 16.8894C15.6907 16.8894 15.8527 16.8302 15.98 16.7227L22.1887 11.481V19.7841C22.1886 19.9121 22.0367 20.0244 21.8636 20.0244ZM15 15.0909L8.96155 9.97563H21.0385L15 15.0909Z" fill="#F1F2F2"/>
</g>
<defs>
<clipPath id="clip0">
<rect width="30" height="30" fill="white"/>
</clipPath>
</defs>
</svg>
