<svg width="13" height="13" viewBox="0 0 13 13" fill="none" xmlns="http://www.w3.org/2000/svg">
<path d="M8.60537 7.57896H8.06484L7.87326 7.39422C8.54379 6.61422 8.94747 5.60159 8.94747 4.50001C8.94747 2.0437 6.95642 0.0526428 4.5001 0.0526428C2.04379 0.0526428 0.0527344 2.0437 0.0527344 4.50001C0.0527344 6.95633 2.04379 8.94738 4.5001 8.94738C5.60168 8.94738 6.61431 8.5437 7.39431 7.87317L7.57905 8.06475V8.60527L11.0001 12.0195L12.0196 11L8.60537 7.57896ZM4.5001 7.57896C2.79642 7.57896 1.42116 6.2037 1.42116 4.50001C1.42116 2.79633 2.79642 1.42106 4.5001 1.42106C6.20379 1.42106 7.57905 2.79633 7.57905 4.50001C7.57905 6.2037 6.20379 7.57896 4.5001 7.57896Z" fill="#2B2012"/>
</svg>
