<svg width="104" height="100" viewBox="0 0 104 100" fill="none" xmlns="http://www.w3.org/2000/svg">
<path d="M3.35484 12.9032H57.0322V16.1291H60.3871V8.06453C60.3871 3.61775 56.6246 0 52 0H8.3871C3.76245 0 0 3.61775 0 8.06453V80.6452H3.35484V12.9032ZM3.35484 8.06453C3.35484 5.39678 5.61264 3.22581 8.3871 3.22581H52C54.7744 3.22581 57.0322 5.39678 57.0322 8.06453V9.67743H3.35484V8.06453Z" fill="#6B808F"/>
<path d="M0 91.9356C0 96.3823 3.76245 100 8.3871 100H52C56.6246 100 60.3871 96.3823 60.3871 91.9356V83.8711H0V91.9356ZM3.35484 87.0969H57.0322V91.9356C57.0322 94.6033 54.7744 96.7743 52 96.7743H8.3871C5.61264 96.7743 3.35484 94.6033 3.35484 91.9356V87.0969Z" fill="#6B808F"/>
<path d="M38.5806 90.3224H21.8064V93.5491H38.5806V90.3224Z" fill="#6B808F"/>
<path d="M75.4839 49.9999C69.9334 49.9999 65.4194 54.3402 65.4194 59.6774C65.4194 65.0145 69.9334 69.3549 75.4839 69.3549C81.0345 69.3549 85.5485 65.0145 85.5485 59.6774C85.5485 54.3402 81.0345 49.9999 75.4839 49.9999ZM75.4839 66.129C71.7836 66.129 68.7743 63.2355 68.7743 59.6774C68.7743 56.1193 71.7836 53.2257 75.4839 53.2257C79.1843 53.2257 82.1936 56.1193 82.1936 59.6774C82.1936 63.2355 79.1843 66.129 75.4839 66.129Z" fill="#6B808F"/>
<path d="M28.516 29.0319C23.8914 29.0319 20.1289 32.6497 20.1289 37.0966C20.1289 41.5435 23.8914 45.1613 28.516 45.1613C33.1406 45.1613 36.9031 41.5435 36.9031 37.0966C36.9031 32.6497 33.1406 29.0319 28.516 29.0319ZM28.516 41.9354C25.7415 41.9354 23.4837 39.7644 23.4837 37.0966C23.4837 34.4288 25.7415 32.2577 28.516 32.2577C31.2904 32.2577 33.5482 34.4288 33.5482 37.0966C33.5482 39.7644 31.2904 41.9354 28.516 41.9354Z" fill="#6B808F"/>
<path d="M34.4711 52.1774C34.7798 52.0645 35.0868 51.9403 35.3921 51.8065L40.592 55.1403L47.2816 48.7081L43.8144 43.7081C43.9536 43.4129 44.0828 43.1178 44.2002 42.8226L50.3228 41.6452V32.5484L44.2002 31.371C43.9637 30.7823 43.6852 30.1936 43.3682 29.6113L40.3991 31.1129C40.7866 31.8242 41.102 32.5452 41.3301 33.2516L41.627 34.1662L46.9679 35.1936V39L41.6253 40.0274L41.3284 40.942C41.1003 41.6484 40.7866 42.3678 40.3975 43.0807L39.9345 43.929L42.9622 48.2968L40.1643 50.9887L35.6219 48.0758L34.7412 48.521C34.0048 48.8936 33.255 49.1952 32.5153 49.4177L31.5659 49.7032L30.4973 54.8387H26.537L25.4684 49.7032L24.519 49.4177C23.7793 49.1952 23.0295 48.8936 22.2931 48.521L21.4125 48.0758L16.87 50.9887L13.0992 47.3613L10.7273 49.6419L16.4439 55.1387L21.6439 51.8048C21.9492 51.9387 22.2562 52.0629 22.5648 52.1758L23.7894 58.0629H33.2483L34.4711 52.1774Z" fill="#6B808F"/>
<path d="M6.70972 32.5482V41.645L12.8323 42.8224C13.0688 43.4111 13.3473 43.9999 13.6643 44.5821L16.6333 43.0805C16.2458 42.3692 15.9305 41.6482 15.7024 40.9418L15.4055 40.0273L10.0646 38.9999V35.1934L15.4071 34.166L15.704 33.2515C15.9322 32.545 16.2458 31.8257 16.635 31.1128L17.098 30.2644L14.0702 25.8966L16.8698 23.2047L21.414 26.1176L22.2946 25.6708C23.0293 25.2999 23.7774 24.9983 24.5172 24.7757L25.4666 24.4902L26.5351 19.3547H30.4955L31.564 24.4902L32.5134 24.7757C33.2532 24.9983 34.003 25.2999 34.736 25.6708L35.6167 26.1176L40.1608 23.2047L43.9333 26.8321L46.3052 24.5515L40.5902 19.0547L35.3885 22.387C35.0816 22.2531 34.7763 22.1305 34.4676 22.016L33.2448 16.1289H23.7858L22.5613 22.016C22.2527 22.1305 21.9474 22.2531 21.6404 22.387L16.4387 19.0547L9.75088 25.4853L13.2181 30.4853C13.0789 30.7805 12.9497 31.0757 12.8323 31.3708L6.70972 32.5482Z" fill="#6B808F"/>
<path d="M30.1935 61.2903H26.8386V64.517H30.1935V61.2903Z" fill="#6B808F"/>
<path d="M30.1935 67.7418H26.8386V70.9683H30.1935V67.7418Z" fill="#6B808F"/>
<path d="M30.1935 74.1937H26.8386V77.42H30.1935V74.1937Z" fill="#6B808F"/>
<path d="M77.1614 25.8063H73.8066V29.033H77.1614V25.8063Z" fill="#6B808F"/>
<path d="M77.1614 19.355H73.8066V22.5817H77.1614V19.355Z" fill="#6B808F"/>
<path d="M77.1614 12.9034H73.8066V16.1299H77.1614V12.9034Z" fill="#6B808F"/>
<path d="M104 65.8388V53.5161L95.7271 51.9274C95.5342 51.4613 95.3211 51 95.0913 50.5452L92.0737 51.9565C92.389 52.5823 92.6675 53.221 92.8956 53.8597L93.211 54.7323L100.645 56.1613V63.192L93.211 64.6226L92.8956 65.4952C92.6658 66.1339 92.389 66.7742 92.0737 67.3984L91.6526 68.2291L95.8613 74.2985L90.6898 79.2711L84.376 75.2259L83.5121 75.6307C82.8629 75.9339 82.197 76.2017 81.5328 76.421L80.6253 76.7243L79.1408 83.8711H71.8272L70.3393 76.7227L69.4318 76.4194C68.7676 76.1985 68.1017 75.9323 67.4525 75.6291L66.5886 75.2243L60.2748 79.2694L54.1304 73.363L51.7585 75.6436L59.8487 83.4211L66.8687 78.9211C67.0516 78.9969 67.2361 79.0711 67.4206 79.142L69.0762 87.0969H81.8934L83.5457 79.142C83.7302 79.0711 83.9147 78.9969 84.0975 78.9211L91.1175 83.4211L100.181 74.7098L95.499 67.9581C95.5778 67.7823 95.655 67.6049 95.7288 67.4275L104 65.8388Z" fill="#6B808F"/>
<path d="M50.7873 44.6451L55.4689 51.3951C55.3901 51.5709 55.3129 51.7483 55.2391 51.9257L46.9678 53.5161V65.8403L55.2408 67.429C55.4337 67.8951 55.6467 68.3564 55.8765 68.8097L58.8942 67.3984C58.5789 66.7742 58.3004 66.1338 58.0723 65.4951L57.7569 64.6225L50.3226 63.1935V56.1612L57.7569 54.7306L58.0723 53.858C58.3021 53.2193 58.5789 52.5806 58.8942 51.9548L59.3153 51.1225L55.1066 45.0547L60.2781 40.0822L66.5902 44.1273L67.4558 43.7241C68.1033 43.4209 68.7709 43.1531 69.4385 42.9305L70.3426 42.6273L71.8254 35.4838H79.1407L80.6269 42.6289L81.531 42.9322C82.1969 43.1547 82.8662 43.4225 83.5137 43.7257L84.3793 44.1289L90.6914 40.0838L96.8358 45.9918L99.2076 43.7112L91.1174 35.9338L84.0958 40.4338C83.9146 40.358 83.7301 40.2854 83.5456 40.2144L81.89 32.2579H69.0762L67.4222 40.2128C67.2377 40.2838 67.0532 40.3563 66.872 40.4322L59.8504 35.9321L50.7873 44.6451Z" fill="#6B808F"/>
</svg>
