<svg width="100" height="100" viewBox="0 0 100 100" fill="none" xmlns="http://www.w3.org/2000/svg">
<path d="M60.0562 59.6774H100V38.6711C100 35.0806 97.6901 31.9777 94.2532 30.9468L83.871 27.832V25.3804C86.792 23.3375 88.7097 19.955 88.7097 16.129V11.2903C88.7097 5.06474 83.6434 0 77.4194 0C71.1953 0 66.129 5.06474 66.129 11.2903V16.129C66.129 19.955 68.0467 23.3391 70.9677 25.3804V27.832L66.6598 29.126C65.347 28.4132 64.1515 27.4745 63.1568 26.3113L62.637 25.7064C59.1758 21.6694 54.1433 19.3548 48.8289 19.3548C41.9016 19.3548 35.8713 23.2501 32.8015 28.963L29.0323 27.832V25.3804C31.9533 23.3375 33.871 19.955 33.871 16.129V11.2903C33.871 5.06474 28.8047 0 22.5806 0C16.3566 0 11.2903 5.06474 11.2903 11.2903V16.129C11.2903 19.955 13.208 23.3391 16.129 25.3804V27.832L5.74676 30.9468C2.30989 31.9777 0 35.0806 0 38.6711V59.6774H39.9438C40.5336 60.4114 41.2015 61.0793 41.9355 61.6691V64.8469L29.719 67.6663C24.5661 68.8547 20.9677 73.3792 20.9677 78.666V100H79.0323V78.666C79.0323 73.3792 75.4339 68.8547 70.281 67.6648L58.0645 64.8469V61.6691C58.7985 61.0793 59.4664 60.4114 60.0562 59.6774ZM62.9032 51.6129V43.8949C64.639 44.5533 65.9321 46.0804 66.1062 47.9051C66.2385 49.292 65.7998 50.619 64.8713 51.6389C64.3145 52.2516 63.6034 52.6824 62.8339 52.9439C62.8788 52.5068 62.9032 52.0626 62.9032 51.6129ZM61.981 56.3792C63.9916 56.2035 65.892 55.316 67.26 53.811C68.7839 52.1343 69.5352 49.8708 69.3178 47.6003C69.076 45.055 67.5647 42.8561 65.4289 41.5598C68.3452 40.1162 70.8693 37.9355 72.7389 35.1696L75.2512 43.5484H70.9677V56.4516H61.9534C61.9629 56.4272 61.9708 56.4036 61.981 56.3792ZM80.6452 56.4516H74.1936V46.7742H80.6452V56.4516ZM93.3255 34.0371C95.3889 34.6546 96.7742 36.5179 96.7742 38.6711V56.4516H90.3226V38.7097H87.0968V56.4516H83.871V43.5484H79.5875L83.3386 31.0405L93.3255 34.0371ZM69.3548 16.129V11.2903C69.3548 6.84381 72.9728 3.22581 77.4194 3.22581C81.8659 3.22581 85.4839 6.84381 85.4839 11.2903V16.129C85.4839 20.5755 81.8659 24.1935 77.4194 24.1935C72.9728 24.1935 69.3548 20.5755 69.3548 16.129ZM77.4194 27.4194C78.54 27.4194 79.6229 27.25 80.6452 26.9437V28.7952L77.4194 39.5484L74.1936 28.7952V26.9437C75.2158 27.25 76.2987 27.4194 77.4194 27.4194ZM48.8289 22.5806C53.2014 22.5806 57.34 24.4857 60.1854 27.8029L60.7052 28.4077C63.0836 31.1854 66.3354 32.9936 69.8809 33.6142C66.9323 37.7985 62.1598 40.3226 56.9226 40.3226H38.9869C37.0708 40.3226 35.298 40.992 33.871 42.0725V37.5386C33.871 29.2922 40.5809 22.5806 48.8289 22.5806ZM37.1661 52.9454C36.3951 52.684 35.6855 52.2532 35.1287 51.6405C34.2017 50.619 33.7615 49.2936 33.8938 47.9067C34.0679 46.0819 35.361 44.5533 37.0968 43.8965V51.6129C37.0968 52.0626 37.1212 52.5068 37.1661 52.9454ZM14.5161 16.129V11.2903C14.5161 6.84381 18.1341 3.22581 22.5806 3.22581C27.0272 3.22581 30.6452 6.84381 30.6452 11.2903V16.129C30.6452 20.5755 27.0272 24.1935 22.5806 24.1935C18.1341 24.1935 14.5161 20.5755 14.5161 16.129ZM22.5806 27.4194C23.7013 27.4194 24.7842 27.25 25.8065 26.9437V28.7952L22.5806 39.5484L19.3548 28.7952V26.9437C20.3771 27.25 21.46 27.4194 22.5806 27.4194ZM25.8065 56.4516H19.3548V46.7742H25.8065V56.4516ZM3.22581 38.6711C3.22581 36.5179 4.61111 34.6546 6.67449 34.0371L16.6614 31.0405L20.4125 43.5484H16.129V56.4516H12.9032V38.7097H9.67742V56.4516H3.22581V38.6711ZM29.0323 56.4516V43.5484H24.7488L28.4999 31.0405L31.5319 31.9501C30.961 33.7127 30.6452 35.5886 30.6452 37.5386V48.3871H30.6901C30.6948 50.3851 31.3933 52.3288 32.7416 53.811C34.1096 55.316 36.01 56.2035 38.0214 56.3792C38.0308 56.4036 38.0387 56.4272 38.0481 56.4516H29.0323ZM40.3226 51.6129V43.5484H56.9226C57.855 43.5484 58.7741 43.4807 59.6774 43.3515V51.6129C59.6774 56.9501 55.3372 61.2903 50 61.2903C44.6628 61.2903 40.3226 56.9501 40.3226 51.6129ZM56.8194 67.8695L57.3045 67.9806L55.4884 73.0674L52.6871 70.9677L56.8194 67.8695ZM58.0645 96.7742H41.9355V90.3226H58.0645V96.7742ZM49.5227 87.0968L45.648 76.2467L50 72.9839L54.352 76.2467L50.4773 87.0968H49.5227ZM44.5131 73.0674L42.697 67.9806L43.1822 67.8695L47.3129 70.9677L44.5131 73.0674ZM24.1935 78.666C24.1935 74.889 26.7649 71.6584 30.4435 70.8079L39.5319 68.7098L46.0985 87.0968H38.7097V96.7742H35.4839V79.0323H32.2581V96.7742H24.1935V78.666ZM75.8064 78.666V96.7742H67.7419V79.0323H64.5161V96.7742H61.2903V87.0968H53.9015L60.4681 68.7114L69.5564 70.8079C73.2351 71.6584 75.8064 74.889 75.8064 78.666ZM54.8387 65.3226L50 68.9516L45.1613 65.3226V63.5663C46.6561 64.1743 48.2887 64.5161 50 64.5161C51.7113 64.5161 53.3439 64.1743 54.8387 63.5663V65.3226Z" fill="#6B808F"/>
</svg>
