<svg width="100" height="100" viewBox="0 0 100 100" fill="none" xmlns="http://www.w3.org/2000/svg">
<path d="M98.3333 0H1.66667C0.745 0 0 0.746667 0 1.66667V61.6667C0 62.5867 0.745 63.3333 1.66667 63.3333H18.3333V66.3533C15.35 68.085 13.3333 71.3083 13.3333 75C13.3333 78.2417 14.8917 81.12 17.29 82.9483C12.0217 85.2783 8.33333 90.5467 8.33333 96.6667V98.3333C8.33333 99.2533 9.07833 100 10 100H36.6667H63.3333H90C90.9217 100 91.6667 99.2533 91.6667 98.3333V96.6667C91.6667 90.5467 87.9783 85.2783 82.71 82.9483C85.1083 81.12 86.6667 78.2417 86.6667 75C86.6667 71.3083 84.65 68.085 81.6667 66.3533V63.3333H98.3333C99.255 63.3333 100 62.5867 100 61.6667V1.66667C100 0.746667 99.255 0 98.3333 0ZM16.6667 75C16.6667 71.3233 19.6567 68.3333 23.3333 68.3333C27.01 68.3333 30 71.3233 30 75C30 78.6767 27.01 81.6667 23.3333 81.6667C19.6567 81.6667 16.6667 78.6767 16.6667 75ZM11.6667 96.6667C11.6667 90.2333 16.9017 85 23.3333 85C29.765 85 35 90.2333 35 96.6667H11.6667ZM29.3767 82.9483C31.775 81.12 33.3333 78.2417 33.3333 75C33.3333 72.4367 32.3567 70.105 30.7667 68.3333H42.5683C40.9767 70.105 40 72.4367 40 75C40 78.2417 41.5583 81.12 43.9567 82.9483C40.81 84.34 38.235 86.78 36.6667 89.825C35.0983 86.78 32.5233 84.34 29.3767 82.9483ZM43.3333 75C43.3333 71.3233 46.3233 68.3333 50 68.3333C53.6767 68.3333 56.6667 71.3233 56.6667 75C56.6667 78.6767 53.6767 81.6667 50 81.6667C46.3233 81.6667 43.3333 78.6767 43.3333 75ZM38.3333 96.6667C38.3333 90.2333 43.5683 85 50 85C56.4317 85 61.6667 90.2333 61.6667 96.6667H38.3333ZM56.0433 82.9483C58.4417 81.12 60 78.2417 60 75C60 72.4367 59.0233 70.105 57.4333 68.3333H69.235C67.6433 70.105 66.6667 72.4367 66.6667 75C66.6667 78.2417 68.225 81.12 70.6233 82.9483C67.4767 84.34 64.9017 86.78 63.3333 89.825C61.765 86.78 59.19 84.34 56.0433 82.9483ZM88.3333 96.6667H65C65 90.2333 70.235 85 76.6667 85C83.0983 85 88.3333 90.2333 88.3333 96.6667ZM83.3333 75C83.3333 78.6767 80.3433 81.6667 76.6667 81.6667C72.99 81.6667 70 78.6767 70 75C70 71.3233 72.99 68.3333 76.6667 68.3333C80.3433 68.3333 83.3333 71.3233 83.3333 75ZM80 51.6667H75V55H78.3333V65H21.6667V53.3333C21.6667 52.4133 20.9217 51.6667 20 51.6667H15V48.3333H36.6667H63.3333H85V51.6667H80ZM59.825 26.6667C61.71 26.6667 63.5583 27.315 65.03 28.4933L70.6233 32.9683C70.9817 33.255 71.4433 33.3833 71.895 33.3183C72.3467 33.255 72.7567 33.0083 73.0217 32.635L80.3633 22.3567L84.3517 25.3467L76.1733 36.5933C75.3517 37.725 74.1333 38.4417 72.7467 38.615C71.355 38.7867 70.0033 38.39 68.93 37.495L64.4 33.72C63.9033 33.3067 63.21 33.2183 62.6267 33.49C62.0417 33.765 61.6667 34.3533 61.6667 35V45H51.6667V30H48.3333V45H38.3333V35C38.3333 34.3533 37.9583 33.765 37.3733 33.49C36.7933 33.2183 36.0983 33.305 35.6 33.72L31.07 37.495C29.995 38.3917 28.6467 38.7867 27.2533 38.615C25.8667 38.4417 24.65 37.725 23.8267 36.5933L15.6483 25.3467L19.6367 22.3567L26.9783 32.635C27.2433 33.0083 27.6517 33.255 28.105 33.3183C28.5583 33.385 29.0183 33.255 29.3767 32.9683L34.97 28.4933C36.44 27.315 38.29 26.6667 40.1733 26.6667H59.825ZM43.3333 16.6667C43.3333 12.99 46.3233 10 50 10C53.6767 10 56.6667 12.99 56.6667 16.6667C56.6667 20.3433 53.6767 23.3333 50 23.3333C46.3233 23.3333 43.3333 20.3433 43.3333 16.6667ZM96.6667 60H81.6667V55H86.6667C87.5883 55 88.3333 54.2533 88.3333 53.3333V46.6667C88.3333 45.7467 87.5883 45 86.6667 45H65V38.5583L66.795 40.055C68.5617 41.5267 70.8883 42.2067 73.1567 41.9233C75.435 41.6417 77.5167 40.4133 78.8683 38.555L88.0133 25.9817C88.5483 25.245 88.395 24.2133 87.665 23.6683L80.9983 18.6683C80.64 18.3983 80.195 18.2867 79.7433 18.355C79.3 18.4233 78.9033 18.6683 78.6433 19.0333L71.3333 29.2667L67.115 25.8917C65.0533 24.2417 62.465 23.3333 59.8267 23.3333H57.4333C59.0233 21.5617 60 19.23 60 16.6667C60 11.1517 55.515 6.66667 50 6.66667C44.485 6.66667 40 11.1517 40 16.6667C40 19.23 40.9767 21.5617 42.5667 23.3333H40.1733C37.5333 23.3333 34.945 24.2417 32.885 25.89L28.6667 29.2667L21.355 19.0317C21.095 18.6667 20.6967 18.4217 20.255 18.3533C19.8033 18.2867 19.3583 18.3983 19 18.6667L12.3333 23.6667C11.6033 24.2133 11.45 25.2433 11.985 25.98L21.13 38.5533C22.4817 40.41 24.5633 41.6383 26.8417 41.9217C29.1067 42.2033 31.4383 41.525 33.2033 40.0533L35 38.5583V45H13.3333C12.4117 45 11.6667 45.7467 11.6667 46.6667V53.3333C11.6667 54.2533 12.4117 55 13.3333 55H18.3333V60H3.33333V3.33333H96.6667V60Z" fill="#6B808F"/>
<path d="M93.3333 6.66663H90V9.99996H93.3333V6.66663Z" fill="#6B808F"/>
<path d="M86.6666 6.66663H83.3333V9.99996H86.6666V6.66663Z" fill="#6B808F"/>
<path d="M80.0001 6.66663H76.6667V9.99996H80.0001V6.66663Z" fill="#6B808F"/>
<path d="M71.6666 51.6666H68.3333V55H71.6666V51.6666Z" fill="#6B808F"/>
</svg>
