<svg width="30" height="30" viewBox="0 0 30 30" fill="none" xmlns="http://www.w3.org/2000/svg">
<path d="M14.9999 29.9997C23.2841 29.9997 29.9997 23.2841 29.9997 14.9999C29.9997 6.71567 23.2841 0 14.9999 0C6.71567 0 0 6.71567 0 14.9999C0 23.2841 6.71567 29.9997 14.9999 29.9997Z" fill="#55ACEE"/>
<path d="M24.1868 10.78C23.544 11.065 22.8525 11.2578 22.1274 11.3439C22.8678 10.9003 23.436 10.1984 23.7042 9.36067C23.0114 9.77165 22.2437 10.0698 21.4274 10.2305C20.7733 9.53394 19.8415 9.09863 18.8097 9.09863C16.8299 9.09863 15.2243 10.7043 15.2243 12.684C15.2243 12.965 15.2561 13.2386 15.3176 13.5012C12.3378 13.3517 9.69578 11.9244 7.92728 9.75453C7.61872 10.284 7.44171 10.9003 7.44171 11.5573C7.44171 12.8009 8.07514 13.8988 9.03667 14.5416C8.44922 14.5231 7.896 14.3619 7.41283 14.0926C7.41256 14.1079 7.41256 14.1231 7.41256 14.1381C7.41256 15.8753 8.64896 17.3243 10.2888 17.6534C9.9883 17.7358 9.67091 17.7793 9.34443 17.7793C9.11287 17.7793 8.88854 17.7572 8.66981 17.7154C9.12598 19.1395 10.4498 20.1762 12.0191 20.2053C10.7918 21.1671 9.24603 21.7401 7.56577 21.7401C7.277 21.7401 6.99089 21.7233 6.71094 21.6899C8.29681 22.7076 10.1819 23.3009 12.2065 23.3009C18.8014 23.3009 22.4079 17.8376 22.4079 13.0993C22.4079 12.9439 22.4044 12.7891 22.3975 12.6356C23.0985 12.1303 23.7063 11.499 24.1868 10.78Z" fill="#F1F2F2"/>
</svg>
