<svg width="31" height="24" viewBox="0 0 31 24" fill="none" xmlns="http://www.w3.org/2000/svg">
<path d="M11.8628 24C10.5947 24 9.28947 23.8973 7.97643 23.6915C5.66379 23.3286 3.32274 22.1189 2.6603 21.7567L0.922852 20.8068L2.80393 20.1882C4.86018 19.5121 6.11102 19.0926 7.65942 18.4358C6.10901 17.6849 4.91409 16.3343 4.3389 14.5884L3.90129 13.2599L4.26015 13.3147C3.91986 12.9717 3.65117 12.6236 3.44288 12.307C2.70213 11.1819 2.30994 9.80715 2.39339 8.62902L2.47572 7.46945L3.16994 7.73837C2.87708 7.18532 2.66544 6.59469 2.54105 5.97565C2.2379 4.46595 2.49161 2.86207 3.25563 1.45954L3.86035 0.349424L4.66912 1.32084C7.22696 4.39347 10.4667 6.21615 14.3119 6.74973C14.1548 5.66713 14.2725 4.62234 14.662 3.68583C15.1155 2.59539 15.9222 1.67074 16.9943 1.01165C18.185 0.279846 19.6289 -0.0747571 21.0601 0.0131666C22.5785 0.10646 23.9571 0.675391 25.052 1.65955C25.5867 1.52062 25.9807 1.37229 26.5131 1.17184C26.8335 1.05125 27.1968 0.914328 27.6514 0.757721L29.3267 0.180512L28.2342 3.30057C28.3063 3.29453 28.3805 3.28939 28.4582 3.28603L30.2471 3.20504L29.1898 4.65008C29.1291 4.73286 29.1137 4.75635 29.0922 4.78879C29.007 4.91721 28.9009 5.07694 27.4496 7.01484C27.0863 7.5001 26.9049 8.13212 26.9386 8.7948C27.0673 11.313 26.7583 13.5914 26.0198 15.5665C25.3213 17.435 24.239 19.0382 22.8031 20.3316C21.0263 21.9317 18.7606 23.0272 16.0688 23.5875C14.7483 23.8622 13.3304 24 11.8628 24Z" fill="#E18D43"/>
</svg>
