<?xml version="1.0" encoding="UTF-8" standalone="no"?><!DOCTYPE svg PUBLIC "-//W3C//DTD SVG 1.1//EN" "http://www.w3.org/Graphics/SVG/1.1/DTD/svg11.dtd"><svg width="100%" height="100%" viewBox="0 0 159 331" version="1.1" xmlns="http://www.w3.org/2000/svg" xmlns:xlink="http://www.w3.org/1999/xlink" xml:space="preserve" xmlns:serif="http://www.serif.com/" style="fill-rule:evenodd;clip-rule:evenodd;stroke-linejoin:round;stroke-miterlimit:2;"><path d="M33.333,222.496c0,4.587 3.75,8.333 8.334,8.333l75,0c4.587,0 8.333,-3.746 8.333,-8.333l-0,-16.667l-91.667,0l0,16.667Zm29.167,91.667c-0,9.166 7.504,16.666 16.667,16.666c9.166,0 16.666,-7.5 16.666,-16.666l0,-16.667l-33.333,-0l-0,16.667Zm-0,-33.334l33.333,0l0,-33.333l-33.333,-0l-0,33.333Zm95.833,-156.666c0,25.416 -11.666,48.333 -31.25,62.916c2.917,-6.25 4.167,-13.329 4.167,-20.833c-0,-11.667 -2.913,-21.25 -9.163,-29.996c0,-0.421 -0.42,-0.421 -0.42,-0.833c-13.75,-16.667 -14.163,-39.584 -14.163,-39.584c-0.117,-9.316 1.788,-12.8 0.175,-14.187c-2.412,-2.063 -14.087,2.017 -16.587,4.1c-18.75,13.746 -26.088,33.417 -31.505,45.917c-0.97,-4.417 0.434,-10.596 -1.625,-11.409c-2.066,-0.821 -9.625,3.496 -12.129,5.579c-12.079,9.996 -18.75,24.58 -18.75,40.413c0,7.083 1.667,14.167 4.167,20.833c-19.579,-14.583 -31.25,-37.916 -31.25,-62.916c-0,-18.75 6.671,-36.663 18.333,-50.834c3.334,10.838 9.584,24.588 22.084,31.671c2.504,1.25 5.416,1.25 7.92,0c2.496,-1.254 4.167,-3.754 4.58,-6.25c-0,-0.421 7.083,-55 58.754,-98.75c2.496,19.163 9.583,51.663 32.079,78.746l-0,0.421c10.417,12.5 14.583,26.662 14.583,44.996" style="fill:#fff;fill-rule:nonzero;"/></svg>