<?xml version="1.0" encoding="UTF-8" standalone="no"?><!DOCTYPE svg PUBLIC "-//W3C//DTD SVG 1.1//EN" "http://www.w3.org/Graphics/SVG/1.1/DTD/svg11.dtd"><svg width="100%" height="100%" viewBox="0 0 365 258" version="1.1" xmlns="http://www.w3.org/2000/svg" xmlns:xlink="http://www.w3.org/1999/xlink" xml:space="preserve" xmlns:serif="http://www.serif.com/" style="fill-rule:evenodd;clip-rule:evenodd;stroke-linejoin:round;stroke-miterlimit:2;"><path d="M101.157,161.411l-19.908,19.917c-6.892,6.808 4.446,18.158 11.312,11.288c6.638,-6.596 13.292,-13.242 19.9,-19.9c6.963,-6.963 -4.37,-18.234 -11.304,-11.305m28.425,33.413c6.792,-6.875 -3.966,-18.004 -11.025,-11.583c-5.016,5.02 -10.171,10.145 -15.216,15.195c-6.921,7.78 4.687,17.909 11.295,11.305c5.034,-4.896 9.992,-9.963 14.946,-14.917m6.55,10.037l-11.429,11.417c-6.912,7.783 4.692,17.913 11.3,11.308l11.442,-11.437c6.687,-6.692 -3.663,-18.113 -11.313,-11.288m109.959,-138.408l-14.492,10.021l-69.967,1.417c-6.283,5.579 -30.733,27.5 -40.229,38.841c-7.704,9.25 7.392,14.734 15.125,10.404c11.671,-6.925 21.617,-15.662 32.438,-23.645l51.675,-0.892l53.362,57.379l2.642,-25.221l19.012,-18.746l-49.566,-49.558Zm-178.6,47.658l15.237,15.596c0,8.704 0.05,20.5 6.658,26.888l3.471,-3.484c13.196,-13.204 35.538,-0.979 33.375,16.688c10.334,1.496 17.596,11.021 17.184,21.304c15.729,1.742 23.895,21.258 12.616,33.038l17.95,17.95c9.034,9.033 24.809,-3.234 16.5,-12.38c-6.358,-7.141 -14.846,-14.85 -21.766,-21.762l8.279,-8.308c11.75,11.75 23.429,23.433 35.196,35.162c8.925,8.975 24.612,-3.117 16.612,-12.254l-29.179,-29.221l8.308,-8.279c11.729,11.75 23.434,23.467 35.154,35.183c9.059,9.017 24.85,-3.316 16.459,-12.454c-11.288,-9.712 -27.625,-27.112 -38.338,-37.821l8.309,-8.308l35.15,35.162c8.416,8.417 22.512,-1.65 18.004,-10.295l-67.063,-72.109l-42.5,0.738c-4.375,3.554 -18.3,14.637 -30,21.704c-20.796,12.167 -46.608,-8.613 -30.725,-27.646c7.013,-8.367 21.721,-22.183 32.038,-31.587l-15.734,-0.317l-11.787,-12.596l-49.408,49.408Zm236.462,10.205l-14.746,14.508c-0.866,0.85 -1.408,1.979 -1.533,3.187l-2.771,26.775c-0.162,1.567 0.388,3.125 1.504,4.238l2.684,2.671c13.237,13.233 3.658,31.637 -11.513,35.437c-2.142,0.534 -3.658,2.329 -3.929,4.525c-1.513,12.429 -15.004,21.534 -27.404,19.142c-2.4,-0.463 -4.75,0.625 -5.888,2.787c-6.183,11.83 -21.537,15.546 -32.979,8.192c-2.233,-1.437 -5.254,-0.754 -6.8,1.413c-7.925,11.087 -24.387,13.725 -34.904,3.208l-17.938,-17.938l-3.425,3.43c-10.987,10.987 -28.687,4.429 -32.695,-8.8c-0.605,-1.996 -2.288,-3.417 -4.35,-3.705c-7.58,-1.062 -14.18,-6.12 -16.717,-13.312c-0.725,-2.054 -2.542,-3.433 -4.717,-3.604c-15.312,-1.209 -25.258,-21.046 -12.879,-33.429l4.758,-4.759c1.825,-1.825 1.996,-4.675 0.488,-6.771c-5.871,-8.195 -7.067,-19.233 -7.263,-25.187c-0.041,-1.3 -0.57,-2.504 -1.475,-3.438l-6.566,-6.704c-2.034,-2.079 -5.371,-2.1 -7.429,-0.046l-5.196,5.2c-2.042,2.042 -5.35,2.042 -7.388,0l-41.354,-41.35c-2.037,-2.041 -2.037,-5.35 0,-7.387l81.071,-81.071c2.042,-2.037 5.35,-2.037 7.387,0l41.35,41.35c2.038,2.038 2.042,5.346 0,7.388l-2.579,2.579c-1.991,1.996 -2.041,5.208 -0.116,7.266l3.67,3.925c0.971,1.034 2.325,1.634 3.746,1.663c30.346,0.596 59.709,-0.229 90.188,-0.863c1.021,-0.02 2.016,-0.341 2.858,-0.916l3.392,-2.338c2.687,-1.854 3.037,-5.687 0.729,-8c-2.042,-2.037 -2.042,-5.346 -0,-7.387l41.35,-41.346c2.042,-2.042 5.35,-2.042 7.392,-0l81.066,81.067c2.042,2.041 2.042,5.35 0,7.387l-41.346,41.354c-2.041,2.038 -5.35,2.038 -7.391,0l-10.342,-10.341Z" style="fill:#fff;"/></svg>