<?xml version="1.0" encoding="UTF-8" standalone="no"?><!DOCTYPE svg PUBLIC "-//W3C//DTD SVG 1.1//EN" "http://www.w3.org/Graphics/SVG/1.1/DTD/svg11.dtd"><svg width="100%" height="100%" viewBox="0 0 323 323" version="1.1" xmlns="http://www.w3.org/2000/svg" xmlns:xlink="http://www.w3.org/1999/xlink" xml:space="preserve" xmlns:serif="http://www.serif.com/" style="fill-rule:evenodd;clip-rule:evenodd;stroke-linejoin:round;stroke-miterlimit:2;"><g><path d="M237.521,161.214l36.05,-72.109l36.054,72.109l-72.104,-0Zm84.854,4.737c-0,-0.341 -0.096,-0.637 -0.196,-0.979c-0.096,-0.292 -0.096,-0.633 -0.242,-0.879c0,-0.046 0,-0.096 -0.05,-0.146l-43.97,-87.933c-0.096,-0.196 -0.242,-0.296 -0.342,-0.442c-0.196,-0.292 -0.388,-0.537 -0.633,-0.779c-0.246,-0.246 -0.488,-0.442 -0.784,-0.588c-0.146,-0.095 -0.291,-0.241 -0.437,-0.341c-0.096,-0.05 -0.246,-0.05 -0.342,-0.096c-0.292,-0.146 -0.633,-0.196 -0.929,-0.246c-0.292,-0.05 -0.583,-0.096 -0.879,-0.096c-0.292,0 -0.584,0.046 -0.879,0.096c-0.342,0.05 -0.634,0.146 -0.925,0.246c-0.1,0.046 -0.246,0.046 -0.342,0.096c-0.196,0.1 -0.296,0.246 -0.442,0.341c-0.296,0.196 -0.541,0.342 -0.783,0.588c-0.246,0.242 -0.442,0.487 -0.638,0.779c-0.095,0.146 -0.241,0.246 -0.341,0.442l-43.963,87.933c-0.05,0.05 0,0.1 -0.05,0.146c-0.146,0.296 -0.146,0.587 -0.246,0.879c-0.095,0.342 -0.195,0.638 -0.195,0.979c-0,0.046 -0.046,0.096 -0.046,0.146c-0,26.917 21.933,48.85 48.85,48.85c26.916,0 48.854,-21.933 48.854,-48.85c-0,-0.05 -0.05,-0.1 -0.05,-0.146" style="fill:#fff;fill-rule:nonzero;"/><path d="M12.802,161.214l36.05,-72.109l36.054,72.109l-72.104,-0Zm84.854,4.737c-0,-0.341 -0.096,-0.637 -0.196,-0.979c-0.096,-0.292 -0.096,-0.633 -0.242,-0.879c0,-0.046 0,-0.096 -0.05,-0.146l-43.966,-87.933c-0.1,-0.196 -0.246,-0.296 -0.346,-0.442c-0.196,-0.292 -0.388,-0.537 -0.634,-0.779c-0.245,-0.246 -0.487,-0.442 -0.783,-0.588c-0.146,-0.095 -0.292,-0.241 -0.437,-0.341c-0.096,-0.05 -0.246,-0.05 -0.342,-0.096c-0.292,-0.146 -0.633,-0.196 -0.929,-0.246c-0.292,-0.05 -0.584,-0.096 -0.879,-0.096c-0.292,0 -0.584,0.046 -0.88,0.096c-0.341,0.05 -0.633,0.146 -0.925,0.246c-0.1,0.046 -0.245,0.046 -0.341,0.096c-0.196,0.1 -0.296,0.246 -0.442,0.341c-0.292,0.196 -0.537,0.342 -0.779,0.588c-0.246,0.242 -0.442,0.487 -0.638,0.779c-0.1,0.146 -0.245,0.246 -0.345,0.442l-43.963,87.933c-0.05,0.05 0,0.1 -0.05,0.146c-0.146,0.296 -0.146,0.587 -0.246,0.879c-0.096,0.342 -0.196,0.638 -0.196,0.979c0,0.046 -0.045,0.096 -0.045,0.146c-0,26.917 21.933,48.85 48.85,48.85c26.916,0 48.854,-21.933 48.854,-48.85c-0,-0.05 -0.05,-0.1 -0.05,-0.146" style="fill:#fff;fill-rule:nonzero;"/><path d="M322.425,68.396c-0,2.687 -2.2,4.883 -4.888,4.883l-132.387,0c-1.954,9.575 -9.479,17.096 -19.054,19.05l-0,181.242l-9.767,-0l0,-181.242c-9.575,-1.954 -17.1,-9.475 -19.054,-19.05l-132.388,0c-2.687,0 -4.887,-2.196 -4.887,-4.883c-0,-2.692 2.2,-4.888 4.887,-4.888l132.388,0c1.954,-9.575 9.479,-17.095 19.054,-19.05l0,-39.57c0,-2.688 2.196,-4.888 4.883,-4.888c2.688,0 4.884,2.2 4.884,4.888l-0,39.57c9.575,1.955 17.1,9.475 19.054,19.05l132.387,0c2.688,0 4.888,2.196 4.888,4.888" style="fill:#fff;fill-rule:nonzero;"/><path d="M244.259,317.537c0,2.692 -2.196,4.888 -4.883,4.888l-156.325,-0c-2.688,-0 -4.888,-2.196 -4.888,-4.888c0,-13.479 10.946,-24.425 24.425,-24.425l10.263,0c2.246,-11.137 12.112,-19.542 23.933,-19.542l48.854,0c11.825,0 21.692,8.405 23.938,19.542l10.258,0c13.483,0 24.425,10.946 24.425,24.425" style="fill:#fff;fill-rule:nonzero;"/></g></svg>