<svg width="193" height="84" viewBox="0 0 193 84" fill="none" xmlns="http://www.w3.org/2000/svg">
<path d="M39.6505 36.2087C39.6505 32.6291 40.2012 32.0784 41.3026 32.0784C42.404 32.0784 42.9547 32.6291 42.9547 36.2087V81.6415H81.0909V36.2087C81.0909 32.6291 81.6416 32.0784 82.743 32.0784C83.8444 32.0784 84.3951 32.6291 84.3951 36.2087V81.6415H123.633V27.5351C123.633 8.94891 116.06 0 101.191 0C89.076 0 82.6053 7.02145 80.4025 17.8978C78.6127 5.78238 72.555 0 60.1642 0C47.6357 0 40.8896 7.02145 38.6868 18.1732L34.6942 1.1014H0V81.6415H39.6505V36.2087Z" fill="#C5D1E7"/>
<path d="M153.103 83.8444C181.051 83.8444 192.753 72.2796 192.753 54.7948C192.753 37.0347 182.703 31.5277 161.914 29.6002C149.386 28.3611 148.422 27.8104 148.422 26.5714C148.422 25.3323 149.386 24.6439 151.313 24.6439C154.48 24.6439 155.994 25.883 156.545 28.4988H192.34C189.862 10.4633 177.334 0 151.451 0C125.843 0 112.351 11.014 112.351 28.2235C112.351 45.0199 120.749 51.6283 143.328 53.2804C154.755 54.1065 156.958 54.6572 156.958 56.3093C156.958 57.273 155.994 58.2367 154.204 58.2367C150.9 58.2367 148.835 57.1353 147.871 54.2441H110.974C113.452 74.6201 125.981 83.8444 153.103 83.8444Z" fill="#C5D1E7"/>
</svg>
