<svg width="193" height="84" viewBox="0 0 193 84" fill="none" xmlns="http://www.w3.org/2000/svg">
<path d="M39.6505 36.3644C39.6505 32.7849 40.2012 32.2341 41.3026 32.2341C42.404 32.2341 42.9547 32.7849 42.9547 36.3644V81.7973H81.0909V36.3644C81.0909 32.7849 81.6416 32.2341 82.743 32.2341C83.8444 32.2341 84.3951 32.7849 84.3951 36.3644V81.7973H123.633V27.6909C123.633 9.10468 116.06 0.155762 101.191 0.155762C89.076 0.155762 82.6053 7.17721 80.4025 18.0536C78.6127 5.93814 72.555 0.155762 60.1642 0.155762C47.6357 0.155762 40.8896 7.17721 38.6868 18.3289L34.6942 1.25717H0V81.7973H39.6505V36.3644Z" fill="url(#paint0_linear)"/>
<path d="M153.103 84.0001C181.051 84.0001 192.753 72.4354 192.753 54.9506C192.753 37.1905 182.703 31.6834 161.914 29.756C149.386 28.5169 148.422 27.9662 148.422 26.7271C148.422 25.4881 149.386 24.7997 151.313 24.7997C154.48 24.7997 155.994 26.0387 156.545 28.6546H192.34C189.862 10.6191 177.334 0.155762 151.451 0.155762C125.843 0.155762 112.351 11.1698 112.351 28.3792C112.351 45.1756 120.749 51.7841 143.328 53.4362C154.755 54.2622 156.958 54.8129 156.958 56.465C156.958 57.4288 155.994 58.3925 154.204 58.3925C150.9 58.3925 148.835 57.2911 147.871 54.3999H110.974C113.452 74.7759 125.981 84.0001 153.103 84.0001Z" fill="url(#paint1_linear)"/>
<defs>
<linearGradient id="paint0_linear" x1="171" y1="20" x2="27.8775" y2="66.6899" gradientUnits="userSpaceOnUse">
<stop stop-color="#5C97EF"/>
<stop offset="1" stop-color="#47B38C"/>
</linearGradient>
<linearGradient id="paint1_linear" x1="171" y1="20" x2="27.8775" y2="66.6899" gradientUnits="userSpaceOnUse">
<stop stop-color="#5C97EF"/>
<stop offset="1" stop-color="#47B38C"/>
</linearGradient>
</defs>
</svg>
