<svg width="215" height="63" viewBox="0 0 215 63" fill="none" xmlns="http://www.w3.org/2000/svg">
<path d="M39.3865 31.7134C44.8911 25.1056 55.8453 6.14334 42.5119 1.18436C30.4996 -3.2824 17.6249 5.65113 10.9153 15.1938C3.80213 25.2778 -2.37529 39.5764 0.903026 52.0661C5.07431 67.9767 22.6035 63.6022 32.5913 57.1789C40.5425 52.0415 46.304 44.8369 53.8698 39.4103C57.9799 36.457 59.1787 45.0276 60.3714 48.0239C61.142 49.9681 62.3286 52.3922 64.3164 53.3151C74.4021 57.9603 88.8915 30.5506 95.0689 41.5698C98.6163 47.9008 100.91 52.0292 108.8 52.2322C112.182 52.3122 115.662 51.1125 118.928 50.3865C126.048 48.7683 130.133 53.1059 136.617 54.9886C140.121 56.0099 144.085 55.7084 147.675 55.53C153.673 55.2465 159.683 55.4936 165.638 56.2683C174.966 57.4435 184.238 59.2216 193.687 58.7294C200.14 58.391 223.088 55.3577 212.036 44.8061C210.636 43.471 206.495 45.2737 208.018 46.7195C213.412 51.8631 207.602 53.6104 202.666 54.6194C197.541 55.6715 192.213 55.7638 187.008 55.5546C176.666 55.1239 166.476 52.7183 156.134 52.0846C152.653 51.8692 149.094 52.3368 145.626 52.5091C139.063 52.8352 134.433 49.9804 128.831 47.2917C122.409 44.2154 114.763 49.2052 108.182 49.0575C99.6194 48.8606 101.301 37.2138 94.6041 34.9558C86.7019 32.2856 69.9066 54.078 66.0778 49.279C60.5426 42.3266 62.3408 30.1138 51.0196 37.4661C43.9982 42.019 38.6036 48.9591 31.7045 53.8811C26.4567 57.628 20.475 61.5042 13.6493 59.8122C8.83581 58.6186 6.07126 53.7642 4.92141 49.3528C1.63698 36.9985 10.2731 21.0264 18.0163 11.9698C23.6066 5.40503 40.5486 -2.89479 44.0899 9.65645C46.0349 16.5412 39.8452 25.5916 35.7412 30.5198C33.9675 32.6486 38.1877 33.2331 39.411 31.7503L39.3865 31.7134Z" fill="#535F77"/>
</svg>
