<svg width="20" height="20" viewBox="0 0 20 20" fill="none" xmlns="http://www.w3.org/2000/svg">
<path d="M15.3118 0.00412371L12.7416 0C9.85423 0 7.98825 1.91443 7.98825 4.87753V7.12639H5.40412C5.18082 7.12639 5 7.30742 5 7.53072V10.7891C5 11.0124 5.18103 11.1932 5.40412 11.1932H7.98825V19.4151C7.98825 19.6384 8.16907 19.8192 8.39237 19.8192H11.7639C11.9872 19.8192 12.168 19.6381 12.168 19.4151V11.1932H15.1895C15.4128 11.1932 15.5936 11.0124 15.5936 10.7891L15.5948 7.53072C15.5948 7.42351 15.5522 7.32082 15.4765 7.24495C15.4008 7.16907 15.2977 7.12639 15.1905 7.12639H12.168V5.22C12.168 4.30371 12.3864 3.83856 13.58 3.83856L15.3113 3.83794C15.5344 3.83794 15.7153 3.65691 15.7153 3.43381V0.408247C15.7153 0.185361 15.5346 0.00453608 15.3118 0.00412371Z" fill="white"/>
</svg>
