<svg width="20" height="20" viewBox="0 0 20 20" fill="none" xmlns="http://www.w3.org/2000/svg">
<path d="M19.9951 20V19.9992H20.0001V12.6716C20.0001 9.08693 19.2273 6.32558 15.0309 6.32558C13.0135 6.32558 11.6597 7.43112 11.107 8.47922H11.0487V6.66024H7.06982V19.9992H11.2129V13.3942C11.2129 11.6552 11.543 9.97353 13.6996 9.97353C15.8245 9.97353 15.8561 11.9582 15.8561 13.5058V20H19.9951Z" fill="white"/>
<path d="M0.279053 6.60464H4.4651V20H0.279053L0.279053 6.60464Z" fill="white"/>
<path d="M2.4186 0C1.08342 0 0 1.07837 0 2.40733C0 3.73629 1.08342 4.83721 2.4186 4.83721C3.75379 4.83721 4.83721 3.73629 4.83721 2.40733C4.83637 1.07837 3.75295 0 2.4186 0Z" fill="white"/>
</svg>
