<svg width="80" height="80" viewBox="0 0 80 80" fill="none" xmlns="http://www.w3.org/2000/svg">
<rect width="80" height="80" rx="40" fill="black"/>
<path d="M13.145 48V31.5361H15.3237V48H13.145ZM30.9229 42.2275L33.1016 42.7778C32.6449 44.5672 31.8213 45.9336 30.6309 46.877C29.4479 47.8128 27.9992 48.2808 26.2847 48.2808C24.5103 48.2808 23.0653 47.9214 21.9497 47.2026C20.8416 46.4764 19.9956 45.4282 19.4116 44.0581C18.8351 42.688 18.5469 41.2168 18.5469 39.6445C18.5469 37.93 18.8726 36.4364 19.5239 35.1636C20.1828 33.8833 21.1149 32.9137 22.3203 32.2549C23.5332 31.5885 24.8659 31.2554 26.3184 31.2554C27.9655 31.2554 29.3506 31.6746 30.4736 32.5132C31.5967 33.3517 32.3791 34.5309 32.8208 36.0508L30.6758 36.5562C30.2939 35.3582 29.7399 34.486 29.0137 33.9395C28.2874 33.3929 27.374 33.1196 26.2734 33.1196C25.0081 33.1196 23.9487 33.4229 23.0952 34.0293C22.2492 34.6357 21.654 35.4518 21.3096 36.4775C20.9652 37.4958 20.793 38.5477 20.793 39.6333C20.793 41.0334 20.9951 42.2575 21.3994 43.3057C21.8112 44.3464 22.4476 45.125 23.3086 45.6416C24.1696 46.1582 25.1017 46.4165 26.105 46.4165C27.3254 46.4165 28.3586 46.0646 29.2046 45.3608C30.0506 44.6571 30.6234 43.6126 30.9229 42.2275ZM35.1343 39.9814C35.1343 37.2487 35.868 35.1112 37.3354 33.5688C38.8029 32.019 40.6971 31.2441 43.0181 31.2441C44.5379 31.2441 45.908 31.6073 47.1284 32.3335C48.3488 33.0597 49.2772 34.0742 49.9136 35.377C50.5575 36.6722 50.8794 38.1434 50.8794 39.7905C50.8794 41.4601 50.5425 42.9538 49.8687 44.2715C49.1948 45.5892 48.2402 46.5887 47.0049 47.27C45.7695 47.9438 44.4368 48.2808 43.0068 48.2808C41.457 48.2808 40.0719 47.9064 38.8516 47.1577C37.6312 46.409 36.7065 45.387 36.0776 44.0918C35.4487 42.7965 35.1343 41.4264 35.1343 39.9814ZM37.3804 40.0151C37.3804 41.9992 37.9119 43.564 38.9751 44.7095C40.0457 45.8475 41.3859 46.4165 42.9956 46.4165C44.6353 46.4165 45.9829 45.84 47.0386 44.687C48.1017 43.534 48.6333 41.8981 48.6333 39.7793C48.6333 38.4391 48.4049 37.2712 47.9482 36.2754C47.499 35.2721 46.8364 34.4972 45.9604 33.9507C45.092 33.3966 44.1149 33.1196 43.0293 33.1196C41.487 33.1196 40.158 33.6512 39.0425 34.7144C37.9344 35.77 37.3804 37.5369 37.3804 40.0151ZM53.6758 48V31.5361H55.9106L64.5581 44.4624V31.5361H66.647V48H64.4121L55.7646 35.0625V48H53.6758Z" fill="white"/>
</svg>
