<svg width="516" height="516" viewBox="0 0 516 516" fill="none" xmlns="http://www.w3.org/2000/svg">
<path d="M0 0H516V516H0V0Z" fill="#E0E0E0"/>
<path d="M339.086 324.343H176.914C172.86 324.343 169.543 321.026 169.543 316.972V199.029C169.543 194.974 172.86 191.657 176.914 191.657H339.086C343.14 191.657 346.457 194.974 346.457 199.029V316.972C346.457 321.026 343.14 324.343 339.086 324.343ZM251.661 271.169L239.074 258.192L203.562 298.539H314.576L274.825 238.259L251.664 271.165L251.661 271.169ZM231.902 237.813C231.901 235.978 231.54 234.161 230.837 232.466C230.135 230.77 229.105 229.23 227.807 227.933C226.509 226.635 224.969 225.606 223.273 224.904C221.578 224.202 219.76 223.841 217.925 223.841C216.09 223.841 214.273 224.203 212.578 224.905C210.882 225.608 209.342 226.637 208.044 227.935C206.747 229.233 205.718 230.774 205.016 232.469C204.314 234.165 203.953 235.982 203.953 237.817C203.953 241.523 205.425 245.078 208.046 247.698C210.667 250.319 214.221 251.791 217.927 251.791C221.633 251.791 225.188 250.319 227.809 247.698C230.429 245.078 231.902 241.523 231.902 237.817V237.813Z" fill="#C2C2C2"/>
</svg>
